<svg version="1.1" id="Layer_1" xmlns="http://www.w3.org/2000/svg" xmlns:xlink="http://www.w3.org/1999/xlink" x="0px" y="0px"
	 width="100%" viewBox="0 0 786 592" enable-background="new 0 0 786 592" xml:space="preserve">
<path fill="#FFFFFF" opacity="1.000000" stroke="none" 
	d="
M489.000000,593.000000 
	C326.000000,593.000000 163.500000,593.000000 1.000000,593.000000 
	C1.000000,395.666656 1.000000,198.333328 1.000000,1.000000 
	C263.000000,1.000000 525.000000,1.000000 787.000000,1.000000 
	C787.000000,198.333328 787.000000,395.666656 787.000000,593.000000 
	C687.833313,593.000000 588.666687,593.000000 489.000000,593.000000 
M504.003479,221.044098 
	C504.054138,231.349548 504.104797,241.654999 504.002258,252.891693 
	C503.989655,269.912628 503.954041,286.933655 504.008728,303.954376 
	C504.013031,305.293488 504.646240,306.630554 504.995575,308.908508 
	C504.098114,317.862976 503.370239,326.839813 502.193787,335.757507 
	C501.866028,338.241913 499.912079,340.468536 499.223999,342.957153 
	C497.451233,349.369141 492.857758,353.559998 488.039093,357.493530 
	C482.233246,362.232910 475.305847,363.984283 466.978790,363.985413 
	C441.660797,364.044647 416.342804,364.103882 390.096802,364.000854 
	C358.423492,364.012634 326.750214,364.024414 294.389984,363.746521 
	C293.605133,363.498352 292.823547,363.045593 292.034882,363.032867 
	C280.779938,362.851288 273.039032,356.336121 268.516449,347.254852 
	C263.453339,337.088104 261.012115,325.804352 260.745667,314.188202 
	C260.614136,308.454956 259.611877,302.741638 259.742920,296.569824 
	C259.774536,279.699402 259.806152,262.828979 259.930603,245.031342 
	C259.914001,236.701294 259.897369,228.371262 259.448212,219.323318 
	C248.386703,219.323318 237.325180,219.323318 226.214355,219.323318 
	C226.121399,220.862030 226.009140,221.853256 226.009064,222.844498 
	C226.000778,324.506775 225.996902,426.169037 226.044159,527.831299 
	C226.044785,529.178650 226.699936,530.525757 227.972717,531.996460 
	C238.536438,531.996460 249.100143,531.996460 259.810333,531.996460 
	C259.810333,520.260315 259.810333,509.162628 259.980164,497.130646 
	C259.975311,481.444000 259.970490,465.757355 259.987091,449.124939 
	C260.325989,441.514374 260.569824,433.898102 261.023590,426.294403 
	C261.960815,410.588348 270.079712,399.192993 283.263489,391.497467 
	C294.735840,384.800934 307.634796,387.142761 320.074463,387.225464 
	C334.649200,387.322327 349.222107,387.674652 363.796600,387.856750 
	C364.573151,387.866425 365.356567,387.324829 366.585541,387.739288 
	C378.668243,387.800018 390.750946,387.860779 403.790222,387.969757 
	C410.744659,387.904388 417.698975,387.799225 424.653534,387.782104 
	C438.233368,387.748657 451.821350,388.055206 465.391205,387.683289 
	C480.917603,387.257721 490.225525,392.257690 495.966919,405.051544 
	C502.361481,419.300781 505.645508,434.275055 504.262390,450.443970 
	C504.180145,465.753967 504.088135,481.063904 504.056793,496.374023 
	C504.055725,496.900482 504.661926,497.428162 504.994720,498.897980 
	C504.983337,505.642609 504.971954,512.387207 504.250183,519.562439 
	C504.250183,523.606506 504.250183,527.650574 504.250183,532.005005 
	C512.768005,532.005005 520.832458,532.071350 528.894592,531.963745 
	C531.243835,531.932434 533.586487,531.404785 535.974487,530.155090 
	C535.968872,426.757965 535.963257,323.360840 535.397095,219.355881 
	C525.638672,219.243576 515.880371,219.108673 506.121643,219.067505 
	C505.438751,219.064636 504.752899,219.755936 504.003479,221.044098 
M617.615051,73.756729 
	C639.022888,75.531700 660.408630,77.739685 681.851257,78.831238 
	C688.740356,79.181946 696.503784,78.052879 702.602051,75.040062 
	C716.116638,68.363319 728.899536,60.179276 741.819092,52.343273 
	C744.923950,50.460087 747.397583,47.536232 750.932190,44.409172 
	C676.913574,44.409172 604.284607,44.397732 531.655701,44.434208 
	C526.664124,44.436714 521.661987,44.652977 516.683472,45.022270 
	C507.173737,45.727676 498.941589,52.861721 497.417786,61.608162 
	C501.561096,62.042389 505.695160,62.490349 509.832397,62.906929 
	C545.454651,66.493797 581.077515,70.074997 617.615051,73.756729 
M31.614964,43.149021 
	C28.741854,43.149021 25.868744,43.149021 21.830099,43.149021 
	C24.144070,45.309471 25.416468,46.595329 26.788935,47.763634 
	C39.708076,58.760967 54.325577,67.013153 69.685173,74.003677 
	C72.825600,75.432968 76.298279,77.063164 79.604172,77.034409 
	C92.882187,76.918900 106.206741,76.765091 119.419823,75.577042 
	C159.888092,71.938354 200.314240,67.830009 240.753525,63.871216 
	C252.311356,62.739765 263.858154,61.495735 275.799072,60.263168 
	C273.052155,52.438744 268.651154,46.766403 260.851685,45.069012 
	C255.209381,43.841080 249.320923,43.236866 243.540741,43.227013 
	C173.220840,43.107121 102.900650,43.149124 31.614964,43.149021 
M283.060120,96.471161 
	C286.325195,95.484451 289.590240,94.497749 293.111053,93.433754 
	C291.045959,86.988373 288.095520,82.247604 282.823700,79.028893 
	C274.250610,73.794571 264.663086,73.511467 255.261185,74.142525 
	C241.006393,75.099312 226.704163,76.419983 212.632645,78.820396 
	C180.338440,84.329384 148.171127,90.582253 115.953201,96.538017 
	C112.277908,97.217422 108.608337,97.927826 104.257065,98.752563 
	C106.255318,101.359528 107.706192,103.336716 109.243210,105.244484 
	C124.204002,123.814026 143.142288,131.341476 166.718307,125.829910 
	C180.148300,122.690262 193.604156,119.645851 206.969131,116.246941 
	C232.101578,109.855385 257.176575,103.238029 283.060120,96.471161 
M647.123169,121.658615 
	C655.595337,116.141541 662.061462,108.656677 668.691833,100.175972 
	C663.284912,99.154877 658.609192,98.280968 653.937073,97.388107 
	C612.634460,89.495056 571.473572,80.749748 529.575928,76.401314 
	C517.649963,75.163551 505.650360,73.872978 494.005585,78.122864 
	C486.503723,80.860733 481.794525,86.205338 479.760620,94.360390 
	C482.302307,95.278984 484.419861,96.247757 486.639862,96.816345 
	C525.270630,106.710480 563.929749,116.494469 602.546753,126.441521 
	C617.796448,130.369598 632.488098,129.964157 647.123169,121.658615 
M320.080078,143.674042 
	C287.528168,156.319351 254.976288,168.964676 222.424393,181.610001 
	C222.492432,182.155914 222.560471,182.701813 222.628510,183.247726 
	C224.773758,184.404022 226.881516,185.637131 229.069962,186.704849 
	C253.684845,198.714432 278.844147,197.977615 304.290344,189.814514 
	C326.769470,182.603226 346.614288,169.889313 367.538910,159.432480 
	C370.013428,158.195877 372.407104,156.797531 375.862640,154.916550 
	C369.713013,149.743683 364.355011,144.825974 358.565186,140.484055 
	C352.976624,136.293091 346.455444,134.951355 339.640259,136.998611 
	C333.291962,138.905624 327.059692,141.198990 320.080078,143.674042 
M504.500458,197.003281 
	C520.932678,197.253738 535.880859,192.475067 550.703613,184.105759 
	C548.806458,183.156937 547.953735,182.645630 547.041199,182.286346 
	C511.805176,168.412842 476.624390,154.395996 441.297028,140.758896 
	C423.933533,134.056229 407.486359,140.405365 397.902557,157.003952 
	C414.574951,165.656708 431.066315,174.645432 447.937805,182.852768 
	C465.416565,191.355515 483.789398,197.020645 504.500458,197.003281 
M546.302307,161.091751 
	C552.351196,162.877625 558.293152,165.315872 564.468811,166.328873 
	C584.154358,169.557922 600.222839,162.676224 613.727356,147.569748 
	C612.282837,147.039154 611.430481,146.651520 610.538635,146.409225 
	C571.405090,135.776810 532.312195,124.989525 493.095367,114.673401 
	C484.966034,112.534943 476.392517,111.361000 467.991974,111.174934 
	C459.055817,110.977013 451.163879,114.331856 446.028015,124.205040 
	C479.545624,136.547379 512.551758,148.701370 546.302307,161.091751 
M252.496384,121.116692 
	C221.554047,129.462524 190.611710,137.808350 159.363113,146.236771 
	C159.913055,147.222900 160.130020,147.866974 160.552170,148.319733 
	C161.686203,149.535950 162.850662,150.736130 164.103485,151.827347 
	C180.506699,166.114532 198.951675,169.673157 219.441360,162.253677 
	C251.197205,150.754578 282.953979,139.257889 314.683685,127.687073 
	C318.535187,126.282562 322.221863,124.426125 326.930756,122.365181 
	C324.282135,119.410126 322.492767,116.804008 320.137177,114.897514 
	C312.432495,108.661797 303.214539,108.821465 294.381805,110.642639 
	C280.561676,113.492119 266.965820,117.429123 252.496384,121.116692 
z"/>
<path fill="#EBEBEB" opacity="1.000000" stroke="none" 
	d="
M535.957581,219.963730 
	C535.963257,323.360840 535.968872,426.757965 535.491394,530.587280 
	C525.158020,531.019409 515.307739,531.019409 504.960571,531.019409 
	C504.960571,526.652527 504.960571,522.892151 504.960571,519.131836 
	C504.971954,512.387207 504.983337,505.642609 505.005096,497.961975 
	C505.008698,481.347076 505.001892,465.668182 504.995117,449.989258 
	C505.645508,434.275055 502.361481,419.300781 495.966919,405.051544 
	C490.225525,392.257690 480.917603,387.257721 465.391205,387.683289 
	C451.821350,388.055206 438.233368,387.748657 424.653534,387.782104 
	C417.698975,387.799225 410.744659,387.904388 403.068176,387.618073 
	C390.276367,387.190887 378.206604,387.115387 366.136810,387.039886 
	C365.356567,387.324829 364.573151,387.866425 363.796600,387.856750 
	C349.222107,387.674652 334.649200,387.322327 320.074463,387.225464 
	C307.634796,387.142761 294.735840,384.800934 283.263489,391.497467 
	C270.079712,399.192993 261.960815,410.588348 261.023590,426.294403 
	C260.569824,433.898102 260.325989,441.514374 259.633240,449.838074 
	C259.247253,466.392548 259.215118,482.233887 259.145813,498.537537 
	C259.108673,509.540710 259.108673,520.081543 259.108673,530.922852 
	C247.848969,530.922852 237.429474,530.922852 227.006317,530.459045 
	C227.002670,426.859650 227.002670,323.724060 227.002670,220.014648 
	C238.031937,220.014648 248.468552,220.014648 258.927063,220.481674 
	C259.016937,229.283508 259.084930,237.618332 259.084717,246.420319 
	C259.012207,263.598114 259.007874,280.308716 259.003571,297.019318 
	C259.611877,302.741638 260.614136,308.454956 260.745667,314.188202 
	C261.012115,325.804352 263.453339,337.088104 268.516449,347.254852 
	C273.039032,356.336121 280.779938,362.851288 292.034882,363.032867 
	C292.823547,363.045593 293.605133,363.498352 294.929504,364.271362 
	C327.321869,364.809998 359.174652,364.823853 391.491669,364.890259 
	C415.771820,364.970398 439.587830,365.015717 463.403687,364.983398 
	C464.903381,364.981354 466.402222,364.373108 467.901459,364.046875 
	C475.305847,363.984283 482.233246,362.232910 488.039093,357.493530 
	C492.857758,353.559998 497.451233,349.369141 499.223999,342.957153 
	C499.912079,340.468536 501.866028,338.241913 502.193787,335.757507 
	C503.370239,326.839813 504.098114,317.862976 505.013123,307.972748 
	C504.970886,288.676605 504.911072,270.316193 504.893250,251.492126 
	C504.939148,240.690155 504.943024,230.351883 505.419708,220.008850 
	C515.914185,219.990662 525.935852,219.977188 535.957581,219.963730 
z"/>
<path fill="#FF5B27" opacity="1.000000" stroke="none" 
	d="
M617.157593,73.707306 
	C581.077515,70.074997 545.454651,66.493797 509.832397,62.906929 
	C505.695160,62.490349 501.561096,62.042389 497.417786,61.608162 
	C498.941589,52.861721 507.173737,45.727676 516.683472,45.022270 
	C521.661987,44.652977 526.664124,44.436714 531.655701,44.434208 
	C604.284607,44.397732 676.913574,44.409172 750.932190,44.409172 
	C747.397583,47.536232 744.923950,50.460087 741.819092,52.343273 
	C728.899536,60.179276 716.116638,68.363319 702.602051,75.040062 
	C696.503784,78.052879 688.740356,79.181946 681.851257,78.831238 
	C660.408630,77.739685 639.022888,75.531700 617.157593,73.707306 
z"/>
<path fill="#FF5A25" opacity="1.000000" stroke="none" 
	d="
M32.097752,43.149055 
	C102.900650,43.149124 173.220840,43.107121 243.540741,43.227013 
	C249.320923,43.236866 255.209381,43.841080 260.851685,45.069012 
	C268.651154,46.766403 273.052155,52.438744 275.799072,60.263168 
	C263.858154,61.495735 252.311356,62.739765 240.753525,63.871216 
	C200.314240,67.830009 159.888092,71.938354 119.419823,75.577042 
	C106.206741,76.765091 92.882187,76.918900 79.604172,77.034409 
	C76.298279,77.063164 72.825600,75.432968 69.685173,74.003677 
	C54.325577,67.013153 39.708076,58.760967 26.788935,47.763634 
	C25.416468,46.595329 24.144070,45.309471 21.830099,43.149021 
	C25.868744,43.149021 28.741854,43.149021 32.097752,43.149055 
z"/>
<path fill="#FF5924" opacity="1.000000" stroke="none" 
	d="
M282.667786,96.592865 
	C257.176575,103.238029 232.101578,109.855385 206.969131,116.246941 
	C193.604156,119.645851 180.148300,122.690262 166.718307,125.829910 
	C143.142288,131.341476 124.204002,123.814026 109.243210,105.244484 
	C107.706192,103.336716 106.255318,101.359528 104.257065,98.752563 
	C108.608337,97.927826 112.277908,97.217422 115.953201,96.538017 
	C148.171127,90.582253 180.338440,84.329384 212.632645,78.820396 
	C226.704163,76.419983 241.006393,75.099312 255.261185,74.142525 
	C264.663086,73.511467 274.250610,73.794571 282.823700,79.028893 
	C288.095520,82.247604 291.045959,86.988373 293.111053,93.433754 
	C289.590240,94.497749 286.325195,95.484451 282.667786,96.592865 
z"/>
<path fill="#FF5924" opacity="1.000000" stroke="none" 
	d="
M646.797852,121.823090 
	C632.488098,129.964157 617.796448,130.369598 602.546753,126.441521 
	C563.929749,116.494469 525.270630,106.710480 486.639862,96.816345 
	C484.419861,96.247757 482.302307,95.278984 479.760620,94.360390 
	C481.794525,86.205338 486.503723,80.860733 494.005585,78.122864 
	C505.650360,73.872978 517.649963,75.163551 529.575928,76.401314 
	C571.473572,80.749748 612.634460,89.495056 653.937073,97.388107 
	C658.609192,98.280968 663.284912,99.154877 668.691833,100.175972 
	C662.061462,108.656677 655.595337,116.141541 646.797852,121.823090 
z"/>
<path fill="#FF5924" opacity="1.000000" stroke="none" 
	d="
M320.428223,143.498169 
	C327.059692,141.198990 333.291962,138.905624 339.640259,136.998611 
	C346.455444,134.951355 352.976624,136.293091 358.565186,140.484055 
	C364.355011,144.825974 369.713013,149.743683 375.862640,154.916550 
	C372.407104,156.797531 370.013428,158.195877 367.538910,159.432480 
	C346.614288,169.889313 326.769470,182.603226 304.290344,189.814514 
	C278.844147,197.977615 253.684845,198.714432 229.069962,186.704849 
	C226.881516,185.637131 224.773758,184.404022 222.628510,183.247726 
	C222.560471,182.701813 222.492432,182.155914 222.424393,181.610001 
	C254.976288,168.964676 287.528168,156.319351 320.428223,143.498169 
z"/>
<path fill="#FF5824" opacity="1.000000" stroke="none" 
	d="
M504.010559,197.002762 
	C483.789398,197.020645 465.416565,191.355515 447.937805,182.852768 
	C431.066315,174.645432 414.574951,165.656708 397.902557,157.003952 
	C407.486359,140.405365 423.933533,134.056229 441.297028,140.758896 
	C476.624390,154.395996 511.805176,168.412842 547.041199,182.286346 
	C547.953735,182.645630 548.806458,183.156937 550.703613,184.105759 
	C535.880859,192.475067 520.932678,197.253738 504.010559,197.002762 
z"/>
<path fill="#FF5925" opacity="1.000000" stroke="none" 
	d="
M545.930054,160.973557 
	C512.551758,148.701370 479.545624,136.547379 446.028015,124.205040 
	C451.163879,114.331856 459.055817,110.977013 467.991974,111.174934 
	C476.392517,111.361000 484.966034,112.534943 493.095367,114.673401 
	C532.312195,124.989525 571.405090,135.776810 610.538635,146.409225 
	C611.430481,146.651520 612.282837,147.039154 613.727356,147.569748 
	C600.222839,162.676224 584.154358,169.557922 564.468811,166.328873 
	C558.293152,165.315872 552.351196,162.877625 545.930054,160.973557 
z"/>
<path fill="#FF5925" opacity="1.000000" stroke="none" 
	d="
M252.885681,121.011063 
	C266.965820,117.429123 280.561676,113.492119 294.381805,110.642639 
	C303.214539,108.821465 312.432495,108.661797 320.137177,114.897514 
	C322.492767,116.804008 324.282135,119.410126 326.930756,122.365181 
	C322.221863,124.426125 318.535187,126.282562 314.683685,127.687073 
	C282.953979,139.257889 251.197205,150.754578 219.441360,162.253677 
	C198.951675,169.673157 180.506699,166.114532 164.103485,151.827347 
	C162.850662,150.736130 161.686203,149.535950 160.552170,148.319733 
	C160.130020,147.866974 159.913055,147.222900 159.363113,146.236771 
	C190.611710,137.808350 221.554047,129.462524 252.885681,121.011063 
z"/>
<path fill="#FFAB90" opacity="1.000000" stroke="none" 
	d="
M258.905182,220.014648 
	C248.468552,220.014648 238.031937,220.014648 227.002670,220.014648 
	C227.002670,323.724060 227.002670,426.859650 227.011749,530.696899 
	C227.020813,531.398499 227.049591,531.872986 227.049591,531.872986 
	C226.699936,530.525757 226.044785,529.178650 226.044159,527.831299 
	C225.996902,426.169037 226.000778,324.506775 226.009064,222.844498 
	C226.009140,221.853256 226.121399,220.862030 226.214355,219.323318 
	C237.325180,219.323318 248.386703,219.323318 259.420837,219.669952 
	C259.393433,220.016586 258.905182,220.014648 258.905182,220.014648 
z"/>
<path fill="#FF754A" opacity="1.000000" stroke="none" 
	d="
M391.027466,364.837677 
	C359.174652,364.823853 327.321869,364.809998 295.272980,364.416199 
	C326.750214,364.024414 358.423492,364.012634 390.557983,364.250641 
	C391.019165,364.500427 391.027466,364.837677 391.027466,364.837677 
z"/>
<path fill="#FF612F" opacity="1.000000" stroke="none" 
	d="
M391.491669,364.890259 
	C391.027466,364.837677 391.019165,364.500427 391.021973,364.331787 
	C416.342804,364.103882 441.660797,364.044647 467.440125,364.016144 
	C466.402222,364.373108 464.903381,364.981354 463.403687,364.983398 
	C439.587830,365.015717 415.771820,364.970398 391.491669,364.890259 
z"/>
<path fill="#FF8964" opacity="1.000000" stroke="none" 
	d="
M227.511154,531.934692 
	C227.049591,531.872986 227.020813,531.398499 227.015396,531.160645 
	C237.429474,530.922852 247.848969,530.922852 259.108673,530.922852 
	C259.108673,520.081543 259.108673,509.540710 259.302307,498.528839 
	C259.495941,498.057800 259.810333,498.064941 259.810333,498.064941 
	C259.810333,509.162628 259.810333,520.260315 259.810333,531.996460 
	C249.100143,531.996460 238.536438,531.996460 227.511154,531.934692 
z"/>
<path fill="#FF9E7F" opacity="1.000000" stroke="none" 
	d="
M504.851288,251.955811 
	C504.911072,270.316193 504.970886,288.676605 505.008911,307.502777 
	C504.646240,306.630554 504.013031,305.293488 504.008728,303.954376 
	C503.954041,286.933655 503.989655,269.912628 504.252808,252.431976 
	C504.503326,251.972244 504.851288,251.955811 504.851288,251.955811 
z"/>
<path fill="#FFA589" opacity="1.000000" stroke="none" 
	d="
M259.373230,296.794556 
	C259.007874,280.308716 259.012207,263.598114 259.255676,246.428070 
	C259.494812,245.968643 259.837799,245.958542 259.837799,245.958542 
	C259.806152,262.828979 259.774536,279.699402 259.373230,296.794556 
z"/>
<path fill="#FFA78A" opacity="1.000000" stroke="none" 
	d="
M504.628754,450.216614 
	C505.001892,465.668182 505.008698,481.347076 505.000244,497.490662 
	C504.661926,497.428162 504.055725,496.900482 504.056793,496.374023 
	C504.088135,481.063904 504.180145,465.753967 504.628754,450.216614 
z"/>
<path fill="#FFA88C" opacity="1.000000" stroke="none" 
	d="
M259.895264,497.597778 
	C259.810333,498.064941 259.495941,498.057800 259.339478,498.066498 
	C259.215118,482.233887 259.247253,466.392548 259.622498,450.310974 
	C259.970490,465.757355 259.975311,481.444000 259.895264,497.597778 
z"/>
<path fill="#FF835B" opacity="1.000000" stroke="none" 
	d="
M504.605377,519.347168 
	C504.960571,522.892151 504.960571,526.652527 504.960571,531.019409 
	C515.307739,531.019409 525.158020,531.019409 535.470215,531.062012 
	C533.586487,531.404785 531.243835,531.932434 528.894592,531.963745 
	C520.832458,532.071350 512.768005,532.005005 504.250183,532.005005 
	C504.250183,527.650574 504.250183,523.606506 504.605377,519.347168 
z"/>
<path fill="#FF8964" opacity="1.000000" stroke="none" 
	d="
M366.361176,387.389587 
	C378.206604,387.115387 390.276367,387.190887 402.589905,387.593933 
	C390.750946,387.860779 378.668243,387.800018 366.361176,387.389587 
z"/>
<path fill="#FF855E" opacity="1.000000" stroke="none" 
	d="
M504.893250,251.492126 
	C504.851288,251.955811 504.503326,251.972244 504.329407,251.966339 
	C504.104797,241.654999 504.054138,231.349548 504.253052,220.536423 
	C504.502625,220.028748 504.946930,220.013596 504.946930,220.013596 
	C504.943024,230.351883 504.939148,240.690155 504.893250,251.492126 
z"/>
<path fill="#FFD5C8" opacity="1.000000" stroke="none" 
	d="
M505.419708,220.008850 
	C504.946930,220.013596 504.502625,220.028748 504.285522,220.076584 
	C504.752899,219.755936 505.438751,219.064636 506.121643,219.067505 
	C515.880371,219.108673 525.638672,219.243576 535.677368,219.659805 
	C525.935852,219.977188 515.914185,219.990662 505.419708,220.008850 
z"/>
<path fill="#FF8E6A" opacity="1.000000" stroke="none" 
	d="
M259.884216,245.494934 
	C259.837799,245.958542 259.494812,245.968643 259.323853,245.960892 
	C259.084930,237.618332 259.016937,229.283508 258.927063,220.481674 
	C258.905182,220.014648 259.393433,220.016586 259.637085,220.028900 
	C259.897369,228.371262 259.914001,236.701294 259.884216,245.494934 
z"/>
</svg>