<svg version="1.1" id="Layer_1" xmlns="http://www.w3.org/2000/svg" xmlns:xlink="http://www.w3.org/1999/xlink" x="0px" y="0px"
	 width="100%" viewBox="0 0 1628 378" enable-background="new 0 0 1628 378" xml:space="preserve">
<path fill="#FFFFFF" opacity="1.000000" stroke="none" 
	d="
M1096.000000,379.000000 
	C730.712097,379.000000 365.924194,379.000000 1.068140,379.000000 
	C1.068140,253.061142 1.068140,127.122246 1.068140,1.091674 
	C543.666687,1.091674 1086.333374,1.091674 1628.966553,1.091674 
	C1628.966553,127.075928 1628.966553,253.037964 1628.966553,379.000000 
	C1451.455444,379.000000 1273.977783,379.000000 1096.000000,379.000000 
M69.468933,347.852905 
	C69.559578,347.548370 69.650223,347.243866 69.817451,346.013184 
	C69.903564,311.967865 69.741608,277.919464 70.167946,243.878418 
	C70.427734,223.135620 88.495659,201.362488 112.478203,202.958115 
	C121.397163,203.551514 130.349060,203.979858 139.284012,203.947662 
	C185.608292,203.780762 231.931763,203.344421 278.256042,203.239883 
	C287.808075,203.218323 297.063599,205.897034 302.404938,214.360306 
	C309.468781,225.552795 313.132507,238.270126 313.897308,251.483597 
	C314.599182,263.609192 314.391418,275.792938 314.409210,287.951355 
	C314.437988,307.615692 314.323181,327.280273 314.154724,347.466827 
	C314.454468,347.555298 314.754211,347.643738 315.980072,347.820190 
	C325.906067,347.820190 335.832031,347.820190 345.625610,347.820190 
	C345.625610,243.422211 345.625610,139.719406 345.625610,36.199951 
	C335.000641,36.199951 324.753235,36.199951 314.158081,36.199951 
	C314.158081,38.360516 314.155334,40.165997 314.158508,41.971470 
	C314.201538,66.462326 314.480927,90.955986 314.189362,115.442841 
	C314.044312,127.623703 313.924683,139.976303 311.872406,151.921143 
	C309.089264,168.119751 292.900970,180.425095 276.840729,180.187439 
	C239.362747,179.632858 201.870178,180.082108 164.383514,180.090103 
	C144.391953,180.094376 124.399841,180.105865 104.409035,179.964752 
	C89.970253,179.862839 80.074905,170.060043 75.924408,158.253754 
	C70.471138,142.741638 69.256279,126.833328 69.610016,110.505409 
	C70.129532,86.525505 69.799545,62.527130 69.812988,38.536613 
	C69.813515,37.602879 69.622681,36.669037 69.513237,35.663857 
	C58.394272,35.663857 47.636421,35.663857 36.731140,35.663857 
	C36.731140,139.761795 36.731140,243.627121 36.731140,347.741943 
	C47.664673,347.741943 58.301376,347.741943 69.468933,347.852905 
M837.001526,321.499573 
	C837.001526,285.137695 837.001526,248.775818 837.001526,212.413925 
	C837.320374,212.332230 837.639221,212.250519 837.958069,212.168808 
	C868.436462,254.108368 898.914856,296.047913 929.578247,338.242096 
	C937.363281,326.962677 944.877808,315.874054 952.598022,304.930481 
	C970.011658,280.246368 987.546265,255.647705 1004.988525,230.983719 
	C1009.831055,224.136215 1014.448669,217.128647 1019.353516,210.327271 
	C1020.204102,209.147873 1021.976379,208.633194 1023.322937,207.811508 
	C1024.215210,209.296158 1025.223389,210.727188 1025.946167,212.290176 
	C1026.263672,212.976578 1025.999756,213.931885 1025.999756,214.765091 
	C1025.999756,255.092484 1025.999756,295.419891 1025.999756,335.747284 
	C1025.999756,337.368958 1025.999756,338.990601 1025.999756,340.799683 
	C1044.468140,340.799683 1062.538086,340.799683 1081.000244,340.799683 
	C1081.000244,339.332062 1081.000244,338.035217 1081.000244,336.738373 
	C1081.000244,240.919128 1081.000244,145.099899 1081.000244,49.280659 
	C1081.000244,48.780731 1081.163330,48.203484 1080.969849,47.795200 
	C1080.355103,46.497307 1079.607300,45.262390 1078.543701,43.339245 
	C1028.691284,112.395714 979.510010,180.522659 930.453064,248.477386 
	C882.335632,180.495316 834.107422,112.356606 785.879150,44.217892 
	C785.362488,44.170616 784.845825,44.123344 784.329163,44.076069 
	C783.885742,45.894592 783.055542,47.712856 783.054321,49.531681 
	C782.991577,145.184235 782.997986,240.836823 783.008362,336.489410 
	C783.008545,337.925964 783.150085,339.362518 783.221252,340.714478 
	C801.307983,340.714478 819.045532,340.714478 837.001526,340.714478 
	C837.001526,334.453308 837.001526,328.476349 837.001526,321.499573 
M1339.500000,285.998657 
	C1298.740967,285.998657 1257.982056,285.998657 1217.290283,285.998657 
	C1217.290283,264.688751 1217.290283,243.951584 1217.290283,222.819962 
	C1258.315186,222.819962 1299.052246,222.819962 1339.709473,222.819962 
	C1339.709473,204.016220 1339.709473,185.611603 1339.709473,166.813431 
	C1298.682251,166.813431 1257.945190,166.813431 1217.296265,166.813431 
	C1217.296265,145.677307 1217.296265,124.939941 1217.296265,103.809158 
	C1263.993530,103.809158 1310.396606,103.809158 1356.704468,103.809158 
	C1356.704468,86.005783 1356.704468,68.600906 1356.704468,51.293457 
	C1290.673340,51.293457 1224.939453,51.293457 1159.287109,51.293457 
	C1159.287109,148.318680 1159.287109,245.050232 1159.287109,341.716675 
	C1226.974976,341.716675 1294.375488,341.716675 1361.715332,341.716675 
	C1361.715332,323.026825 1361.715332,304.622192 1361.715332,285.998657 
	C1354.454468,285.998657 1347.477173,285.998657 1339.500000,285.998657 
M1448.602905,337.998566 
	C1459.471069,340.325562 1470.244751,343.656891 1481.234619,344.692169 
	C1491.857056,345.692780 1502.712646,344.521606 1513.447388,343.955902 
	C1528.943970,343.139221 1543.662476,339.369354 1557.136719,331.396515 
	C1570.290894,323.613098 1580.679321,313.209686 1588.071655,299.718079 
	C1598.322632,281.008850 1599.852051,261.273407 1596.040283,240.690872 
	C1591.478271,216.056961 1577.369751,198.448303 1555.628174,187.091049 
	C1535.589478,176.623444 1514.896729,167.413681 1494.754150,157.136551 
	C1486.237793,152.791275 1478.069824,147.444565 1474.005127,138.025253 
	C1467.835327,123.727768 1476.174438,107.191139 1492.140137,103.855103 
	C1502.628052,101.663658 1513.043701,101.395226 1523.592896,102.020844 
	C1527.841553,102.272812 1532.312134,102.006157 1536.275879,103.259232 
	C1550.886597,107.878090 1565.327637,113.034119 1579.977905,118.037857 
	C1586.446899,105.103363 1593.277588,91.445526 1600.573853,76.856720 
	C1590.553589,71.532959 1580.936279,65.609879 1570.676392,61.172924 
	C1557.078735,55.292629 1542.867798,51.348843 1527.923584,49.803001 
	C1512.720337,48.230358 1497.730835,48.815228 1482.849854,51.694561 
	C1472.444702,53.707859 1462.685791,57.484974 1453.284668,62.791451 
	C1436.839966,72.073547 1425.989014,85.640793 1418.987915,102.766624 
	C1414.044556,114.858582 1413.892212,127.543747 1413.900024,140.345642 
	C1413.906128,150.161438 1416.327148,159.311874 1420.522583,167.907852 
	C1429.161743,185.607864 1443.858398,197.283157 1461.002075,205.903915 
	C1476.459106,213.676620 1492.529785,220.239273 1507.904297,228.161407 
	C1516.974243,232.834961 1526.465332,237.453598 1532.688110,246.214279 
	C1538.959717,255.043655 1541.456787,264.289612 1536.074951,274.647552 
	C1528.837646,288.576508 1515.409668,291.690948 1501.890869,293.820007 
	C1490.611694,295.596436 1479.491699,292.781067 1468.726440,289.271881 
	C1454.262573,284.557037 1439.814819,279.779724 1425.477051,274.699310 
	C1422.186157,273.533234 1420.834351,274.206207 1419.347168,277.091553 
	C1416.477295,282.659760 1413.182373,288.007172 1410.159424,293.498810 
	C1406.333252,300.449524 1402.602295,307.452728 1399.003662,314.112396 
	C1414.349365,324.759552 1430.819092,331.863434 1448.602905,337.998566 
M381.001343,275.270721 
	C381.666565,277.415009 382.395660,279.541870 382.987366,281.706299 
	C390.591827,309.522858 407.738556,328.764923 434.747040,338.981415 
	C452.614746,345.740234 471.035004,347.152496 490.024872,345.144348 
	C506.926331,343.357086 522.167969,337.898773 536.752014,327.872711 
	C528.999695,315.022064 521.338623,302.322571 513.929321,290.040588 
	C506.904358,292.487701 500.825043,295.020172 494.518616,296.700134 
	C486.110107,298.940125 477.651794,301.630676 468.720154,299.021484 
	C459.907196,296.447021 452.136261,292.492920 446.731293,283.859344 
	C488.225616,270.654205 529.174927,257.622528 570.276733,244.542297 
	C569.751831,242.822968 569.212646,241.627380 569.032410,240.379913 
	C566.794495,224.890259 561.406128,210.618240 552.880676,197.479614 
	C540.209412,177.951736 521.390015,167.359558 499.522247,162.250687 
	C487.348419,159.406616 474.719421,159.324448 462.088715,161.840073 
	C449.208557,164.405350 436.904938,168.201950 425.758698,175.077744 
	C404.726318,188.051971 389.069702,205.312332 382.475952,229.886063 
	C378.503143,244.692047 377.976410,259.441772 381.001343,275.270721 
M685.965088,183.542770 
	C678.753784,189.853119 671.542480,196.163467 664.331238,202.473816 
	C664.773560,202.816437 664.197693,201.567810 664.032166,200.266968 
	C662.963623,191.865982 662.133972,183.431549 660.898499,175.056396 
	C660.439209,171.942383 659.154297,169.699371 654.809387,169.851669 
	C642.659851,170.277481 630.482605,170.156250 618.323059,169.912888 
	C614.205933,169.830475 612.895996,170.954803 612.907043,175.228226 
	C613.046875,229.551239 612.997070,283.874756 613.012024,338.198120 
	C613.012390,339.451996 613.204834,340.705811 613.281555,341.641174 
	C630.789978,341.641174 647.862244,341.641174 665.000854,341.641174 
	C665.000854,322.954346 664.679565,304.618774 665.135498,286.302521 
	C665.365845,277.048340 666.429626,267.722229 668.128662,258.617523 
	C671.204712,242.132431 680.301636,229.648865 695.978577,223.148285 
	C706.245911,218.890808 717.075500,215.989182 727.813904,212.427002 
	C728.794495,195.522003 729.821228,177.822357 730.875122,159.653885 
	C713.938049,164.055450 699.372559,171.937973 685.965088,183.542770 
z"/>
<path fill="#000000" opacity="1.000000" stroke="none" 
	d="
M837.001526,321.999451 
	C837.001526,328.476349 837.001526,334.453308 837.001526,340.714478 
	C819.045532,340.714478 801.307983,340.714478 783.221252,340.714478 
	C783.150085,339.362518 783.008545,337.925964 783.008362,336.489410 
	C782.997986,240.836823 782.991577,145.184235 783.054321,49.531681 
	C783.055542,47.712856 783.885742,45.894592 784.329163,44.076069 
	C784.845825,44.123344 785.362488,44.170616 785.879150,44.217892 
	C834.107422,112.356606 882.335632,180.495316 930.453064,248.477386 
	C979.510010,180.522659 1028.691284,112.395714 1078.543701,43.339245 
	C1079.607300,45.262390 1080.355103,46.497307 1080.969849,47.795200 
	C1081.163330,48.203484 1081.000244,48.780731 1081.000244,49.280659 
	C1081.000244,145.099899 1081.000244,240.919128 1081.000244,336.738373 
	C1081.000244,338.035217 1081.000244,339.332062 1081.000244,340.799683 
	C1062.538086,340.799683 1044.468140,340.799683 1025.999756,340.799683 
	C1025.999756,338.990601 1025.999756,337.368958 1025.999756,335.747284 
	C1025.999756,295.419891 1025.999756,255.092484 1025.999756,214.765091 
	C1025.999756,213.931885 1026.263672,212.976578 1025.946167,212.290176 
	C1025.223389,210.727188 1024.215210,209.296158 1023.322937,207.811493 
	C1021.976379,208.633194 1020.204102,209.147873 1019.353516,210.327271 
	C1014.448669,217.128647 1009.831055,224.136215 1004.988525,230.983719 
	C987.546265,255.647705 970.011658,280.246368 952.598022,304.930481 
	C944.877808,315.874054 937.363281,326.962677 929.578247,338.242096 
	C898.914856,296.047913 868.436462,254.108368 837.958069,212.168808 
	C837.639221,212.250519 837.320374,212.332230 837.001526,212.413925 
	C837.001526,248.775818 837.001526,285.137695 837.001526,321.999451 
z"/>
<path fill="#000000" opacity="1.000000" stroke="none" 
	d="
M1340.000000,285.998657 
	C1347.477173,285.998657 1354.454468,285.998657 1361.715332,285.998657 
	C1361.715332,304.622192 1361.715332,323.026825 1361.715332,341.716675 
	C1294.375488,341.716675 1226.974976,341.716675 1159.287109,341.716675 
	C1159.287109,245.050232 1159.287109,148.318680 1159.287109,51.293457 
	C1224.939453,51.293457 1290.673340,51.293457 1356.704468,51.293457 
	C1356.704468,68.600906 1356.704468,86.005783 1356.704468,103.809158 
	C1310.396606,103.809158 1263.993530,103.809158 1217.296265,103.809158 
	C1217.296265,124.939941 1217.296265,145.677307 1217.296265,166.813431 
	C1257.945190,166.813431 1298.682251,166.813431 1339.709473,166.813431 
	C1339.709473,185.611603 1339.709473,204.016220 1339.709473,222.819962 
	C1299.052246,222.819962 1258.315186,222.819962 1217.290283,222.819962 
	C1217.290283,243.951584 1217.290283,264.688751 1217.290283,285.998657 
	C1257.982056,285.998657 1298.740967,285.998657 1340.000000,285.998657 
z"/>
<path fill="#000000" opacity="1.000000" stroke="none" 
	d="
M1448.185913,337.983429 
	C1430.819092,331.863434 1414.349365,324.759552 1399.003662,314.112396 
	C1402.602295,307.452728 1406.333252,300.449524 1410.159424,293.498810 
	C1413.182373,288.007172 1416.477295,282.659760 1419.347168,277.091553 
	C1420.834351,274.206207 1422.186157,273.533234 1425.477051,274.699310 
	C1439.814819,279.779724 1454.262573,284.557037 1468.726440,289.271881 
	C1479.491699,292.781067 1490.611694,295.596436 1501.890869,293.820007 
	C1515.409668,291.690948 1528.837646,288.576508 1536.074951,274.647552 
	C1541.456787,264.289612 1538.959717,255.043655 1532.688110,246.214279 
	C1526.465332,237.453598 1516.974243,232.834961 1507.904297,228.161407 
	C1492.529785,220.239273 1476.459106,213.676620 1461.002075,205.903915 
	C1443.858398,197.283157 1429.161743,185.607864 1420.522583,167.907852 
	C1416.327148,159.311874 1413.906128,150.161438 1413.900024,140.345642 
	C1413.892212,127.543747 1414.044556,114.858582 1418.987915,102.766624 
	C1425.989014,85.640793 1436.839966,72.073547 1453.284668,62.791451 
	C1462.685791,57.484974 1472.444702,53.707859 1482.849854,51.694561 
	C1497.730835,48.815228 1512.720337,48.230358 1527.923584,49.803001 
	C1542.867798,51.348843 1557.078735,55.292629 1570.676392,61.172924 
	C1580.936279,65.609879 1590.553589,71.532959 1600.573853,76.856720 
	C1593.277588,91.445526 1586.446899,105.103363 1579.977905,118.037857 
	C1565.327637,113.034119 1550.886597,107.878090 1536.275879,103.259232 
	C1532.312134,102.006157 1527.841553,102.272812 1523.592896,102.020844 
	C1513.043701,101.395226 1502.628052,101.663658 1492.140137,103.855103 
	C1476.174438,107.191139 1467.835327,123.727768 1474.005127,138.025253 
	C1478.069824,147.444565 1486.237793,152.791275 1494.754150,157.136551 
	C1514.896729,167.413681 1535.589478,176.623444 1555.628174,187.091049 
	C1577.369751,198.448303 1591.478271,216.056961 1596.040283,240.690872 
	C1599.852051,261.273407 1598.322632,281.008850 1588.071655,299.718079 
	C1580.679321,313.209686 1570.290894,323.613098 1557.136719,331.396515 
	C1543.662476,339.369354 1528.943970,343.139221 1513.447388,343.955902 
	C1502.712646,344.521606 1491.857056,345.692780 1481.234619,344.692169 
	C1470.244751,343.656891 1459.471069,340.325562 1448.185913,337.983429 
z"/>
<path fill="#FF5722" opacity="1.000000" stroke="none" 
	d="
M314.269043,346.944733 
	C314.323181,327.280273 314.437988,307.615692 314.409210,287.951355 
	C314.391418,275.792938 314.599182,263.609192 313.897308,251.483597 
	C313.132507,238.270126 309.468781,225.552795 302.404938,214.360306 
	C297.063599,205.897034 287.808075,203.218323 278.256042,203.239883 
	C231.931763,203.344421 185.608292,203.780762 139.284012,203.947662 
	C130.349060,203.979858 121.397163,203.551514 112.478203,202.958115 
	C88.495659,201.362488 70.427734,223.135620 70.167946,243.878418 
	C69.741608,277.919464 69.903564,311.967865 69.600754,346.559631 
	C69.161201,347.266022 69.012543,347.477966 68.938080,347.741943 
	C58.301376,347.741943 47.664673,347.741943 36.731140,347.741943 
	C36.731140,243.627121 36.731140,139.761795 36.731140,35.663857 
	C47.636421,35.663857 58.394272,35.663857 69.513237,35.663857 
	C69.622681,36.669037 69.813515,37.602879 69.812988,38.536613 
	C69.799545,62.527130 70.129532,86.525505 69.610016,110.505409 
	C69.256279,126.833328 70.471138,142.741638 75.924408,158.253754 
	C80.074905,170.060043 89.970253,179.862839 104.409035,179.964752 
	C124.399841,180.105865 144.391953,180.094376 164.383514,180.090103 
	C201.870178,180.082108 239.362747,179.632858 276.840729,180.187439 
	C292.900970,180.425095 309.089264,168.119751 311.872406,151.921143 
	C313.924683,139.976303 314.044312,127.623703 314.189362,115.442841 
	C314.480927,90.955986 314.201538,66.462326 314.158508,41.971470 
	C314.155334,40.165997 314.158081,38.360516 314.158081,36.199951 
	C324.753235,36.199951 335.000641,36.199951 345.625610,36.199951 
	C345.625610,139.719406 345.625610,243.422211 345.625610,347.820190 
	C335.832031,347.820190 325.906067,347.820190 315.437134,347.600098 
	C314.738342,347.159485 314.529938,347.014404 314.269043,346.944733 
z"/>
<path fill="#000000" opacity="1.000000" stroke="none" 
	d="
M381.000244,274.832764 
	C377.976410,259.441772 378.503143,244.692047 382.475952,229.886063 
	C389.069702,205.312332 404.726318,188.051971 425.758698,175.077744 
	C436.904938,168.201950 449.208557,164.405350 462.088715,161.840073 
	C474.719421,159.324448 487.348419,159.406616 499.522247,162.250687 
	C521.390015,167.359558 540.209412,177.951736 552.880676,197.479614 
	C561.406128,210.618240 566.794495,224.890259 569.032410,240.379913 
	C569.212646,241.627380 569.751831,242.822968 570.276733,244.542297 
	C529.174927,257.622528 488.225616,270.654205 446.731293,283.859344 
	C452.136261,292.492920 459.907196,296.447021 468.720154,299.021484 
	C477.651794,301.630676 486.110107,298.940125 494.518616,296.700134 
	C500.825043,295.020172 506.904358,292.487701 513.929321,290.040588 
	C521.338623,302.322571 528.999695,315.022064 536.752014,327.872711 
	C522.167969,337.898773 506.926331,343.357086 490.024872,345.144348 
	C471.035004,347.152496 452.614746,345.740234 434.747040,338.981415 
	C407.738556,328.764923 390.591827,309.522858 382.987366,281.706299 
	C382.395660,279.541870 381.666565,277.415009 381.000244,274.832764 
M437.429321,228.057083 
	C435.379059,236.548767 431.736267,244.971191 435.870270,253.696701 
	C460.525360,245.285294 484.801239,237.003265 509.644073,228.527802 
	C504.709229,217.833817 498.442657,209.124832 487.369843,205.030640 
	C474.887512,200.415283 463.023682,203.127045 452.123474,209.594452 
	C445.405182,213.580597 439.993011,219.357574 437.429321,228.057083 
z"/>
<path fill="#000000" opacity="1.000000" stroke="none" 
	d="
M686.216797,183.280060 
	C699.372559,171.937973 713.938049,164.055450 730.875122,159.653885 
	C729.821228,177.822357 728.794495,195.522003 727.813904,212.427002 
	C717.075500,215.989182 706.245911,218.890808 695.978577,223.148285 
	C680.301636,229.648865 671.204712,242.132431 668.128662,258.617523 
	C666.429626,267.722229 665.365845,277.048340 665.135498,286.302521 
	C664.679565,304.618774 665.000854,322.954346 665.000854,341.641174 
	C647.862244,341.641174 630.789978,341.641174 613.281555,341.641174 
	C613.204834,340.705811 613.012390,339.451996 613.012024,338.198120 
	C612.997070,283.874756 613.046875,229.551239 612.907043,175.228226 
	C612.895996,170.954803 614.205933,169.830475 618.323059,169.912888 
	C630.482605,170.156250 642.659851,170.277481 654.809387,169.851669 
	C659.154297,169.699371 660.439209,171.942383 660.898499,175.056396 
	C662.133972,183.431549 662.963623,191.865982 664.032166,200.266968 
	C664.197693,201.567810 664.773560,202.816437 664.331238,202.473816 
	C671.542480,196.163467 678.753784,189.853119 686.216797,183.280060 
z"/>
<path fill="#FF8863" opacity="1.000000" stroke="none" 
	d="
M69.203506,347.797424 
	C69.012543,347.477966 69.161201,347.266022 69.562462,347.022705 
	C69.650223,347.243866 69.559578,347.548370 69.203506,347.797424 
z"/>
<path fill="#FF855E" opacity="1.000000" stroke="none" 
	d="
M314.211853,347.205780 
	C314.529938,347.014404 314.738342,347.159485 314.974091,347.556091 
	C314.754211,347.643738 314.454468,347.555298 314.211853,347.205780 
z"/>
<path fill="#FFFFFF" opacity="1.000000" stroke="none" 
	d="
M437.691437,227.744064 
	C439.993011,219.357574 445.405182,213.580597 452.123474,209.594452 
	C463.023682,203.127045 474.887512,200.415283 487.369843,205.030640 
	C498.442657,209.124832 504.709229,217.833817 509.644073,228.527802 
	C484.801239,237.003265 460.525360,245.285294 435.870270,253.696701 
	C431.736267,244.971191 435.379059,236.548767 437.691437,227.744064 
z"/>
</svg>