<svg version="1.1" id="Layer_1" xmlns="http://www.w3.org/2000/svg" xmlns:xlink="http://www.w3.org/1999/xlink" x="0px" y="0px"
	 width="100%" viewBox="0 0 1629 625" enable-background="new 0 0 1629 625" xml:space="preserve">
<path fill="#FFFFFF" opacity="1.000000" stroke="none" 
	d="
M1.000000,625.000000 
	C1.000000,417.029419 1.000000,209.058823 1.000000,1.044111 
	C543.893860,1.044111 1086.787720,1.044111 1630.000000,1.044111 
	C1630.000000,208.697479 1630.000000,416.395142 1629.776611,624.649231 
	C1629.275879,625.405579 1629.091431,625.670349 1629.000000,626.000000 
	C1086.969116,626.000000 544.938171,626.000000 2.350207,625.776978 
	C1.595276,625.274170 1.330893,625.089478 1.000000,625.000000 
M780.999146,319.500000 
	C780.999146,407.252625 780.999146,495.005249 780.999146,582.723877 
	C799.288330,582.723877 817.025696,582.723877 835.175598,582.723877 
	C835.175598,539.773682 835.175598,497.098145 835.175598,453.092194 
	C866.433228,496.104675 896.913635,538.047607 927.579590,580.245972 
	C935.347534,568.985718 942.856445,557.893066 950.578125,546.950562 
	C967.995667,522.267822 985.536926,497.672516 1002.986206,473.012146 
	C1007.924988,466.032440 1012.657104,458.905884 1017.648132,451.964630 
	C1018.403931,450.913483 1020.790833,449.645111 1021.161804,449.960602 
	C1022.414246,451.025635 1023.215271,452.704071 1023.946045,454.261902 
	C1024.266479,454.944855 1023.999878,455.903076 1023.999878,456.736298 
	C1023.999939,497.063599 1023.999878,537.390869 1023.999878,577.718201 
	C1023.999878,579.461731 1023.999939,581.205322 1023.999939,582.632202 
	C1042.804199,582.632202 1060.875977,582.632202 1079.000000,582.632202 
	C1079.000000,484.946198 1079.000000,387.627960 1078.999878,290.309723 
	C1078.999878,289.976440 1079.125610,289.567413 1078.978271,289.322784 
	C1078.294434,288.187012 1077.534912,287.096832 1076.452881,285.461975 
	C1026.698364,354.386230 977.513184,422.521912 928.455261,490.481262 
	C880.350769,422.516510 832.121582,354.375549 783.065796,285.066803 
	C782.131531,287.524841 781.099426,289.006989 781.075195,290.505402 
	C780.924255,299.834900 780.999146,309.168060 780.999146,319.500000 
M1228.507935,465.000305 
	C1264.933594,465.000305 1301.359253,465.000305 1337.710693,465.000305 
	C1337.710693,446.019318 1337.710693,427.614777 1337.710693,408.816528 
	C1296.684937,408.816528 1255.947876,408.816528 1215.294434,408.816528 
	C1215.294434,387.680389 1215.294434,366.943024 1215.294434,345.812073 
	C1261.990234,345.812073 1308.393311,345.812073 1354.705566,345.812073 
	C1354.705566,328.008698 1354.705566,310.603882 1354.705566,293.292511 
	C1288.676025,293.292511 1222.942139,293.292511 1157.286255,293.292511 
	C1157.286255,390.316589 1157.286255,487.048126 1157.286255,583.717224 
	C1224.973267,583.717224 1292.373657,583.717224 1359.715698,583.717224 
	C1359.715698,565.028259 1359.715698,546.623657 1359.715698,527.825439 
	C1311.362305,527.825439 1263.292725,527.825439 1215.289673,527.825439 
	C1215.289673,506.689697 1215.289673,485.952484 1215.289673,465.000305 
	C1219.553711,465.000305 1223.532471,465.000305 1228.507935,465.000305 
M1477.790527,294.031036 
	C1468.932129,297.680603 1459.828979,300.836975 1451.267212,305.084534 
	C1434.515259,313.395447 1424.024292,327.542633 1417.048706,344.452942 
	C1412.021729,356.639313 1411.778931,369.528748 1411.900879,382.512543 
	C1411.992798,392.309784 1414.372314,401.438507 1418.610474,410.042236 
	C1427.316650,427.716705 1441.971191,439.367188 1459.159058,447.930450 
	C1474.645996,455.646240 1490.721802,462.202393 1506.055420,470.195404 
	C1515.091064,474.905579 1524.516235,479.581207 1530.830078,488.310059 
	C1541.480591,503.034149 1538.199829,518.888672 1524.169434,527.710022 
	C1510.400879,536.366760 1494.674683,538.864319 1478.751465,534.210693 
	C1460.927002,529.001221 1443.300537,523.093079 1425.693115,517.176025 
	C1421.035278,515.610779 1418.784668,515.925354 1416.316406,520.902466 
	C1410.338623,532.956360 1403.353394,544.510803 1396.276855,557.155090 
	C1409.027832,563.340454 1421.275391,569.657898 1433.835327,575.277588 
	C1448.970947,582.049744 1465.128662,585.492859 1481.543945,586.795837 
	C1491.369751,587.575806 1501.362793,586.469055 1511.268677,585.971191 
	C1526.609985,585.200073 1541.187012,581.475891 1554.579956,573.782288 
	C1567.854736,566.156677 1578.502563,555.736572 1585.873901,542.324646 
	C1591.263550,532.518372 1594.257812,522.057495 1595.347534,510.633942 
	C1596.364624,499.970703 1595.974854,489.565460 1593.585083,479.468506 
	C1587.929932,455.575531 1573.115112,438.539368 1551.244263,427.788940 
	C1539.740845,422.134613 1527.712891,417.550018 1516.187988,411.936279 
	C1501.965820,405.008698 1487.348999,398.420532 1476.294678,386.625854 
	C1469.270386,379.131195 1468.124146,370.000732 1472.030029,360.461670 
	C1475.330566,352.400574 1481.606812,348.086578 1489.959351,345.914490 
	C1501.202271,342.990753 1512.537964,343.587341 1523.902222,344.034027 
	C1527.324219,344.168518 1530.920776,344.113831 1534.111694,345.149414 
	C1548.719849,349.890472 1563.212280,354.987823 1577.979736,360.037018 
	C1584.430908,347.128998 1591.303711,333.377502 1598.244141,319.490662 
	C1561.585327,294.634064 1522.033691,285.356842 1477.790527,294.031036 
M312.252441,568.499878 
	C312.252441,575.455261 312.252441,582.410645 312.252441,589.493286 
	C322.985901,589.493286 333.360413,589.493286 343.618317,589.493286 
	C343.618317,485.430389 343.618317,381.720642 343.618317,278.204132 
	C332.983643,278.204132 322.737030,278.204132 312.229004,278.204132 
	C312.229004,288.873108 312.254150,299.177979 312.224030,309.482727 
	C312.150940,334.475342 312.510925,359.480621 311.820648,384.456543 
	C311.253326,404.983521 296.385162,422.456879 272.560730,422.195923 
	C219.245712,421.611938 165.919006,422.099976 112.597061,422.137970 
	C109.099319,422.140472 105.583214,422.238007 102.106934,421.933746 
	C88.309593,420.726227 78.846420,413.780609 74.259827,400.522095 
	C70.143898,388.624115 67.901085,376.427582 67.915924,363.799500 
	C67.947441,336.973511 67.859085,310.147339 67.820450,283.321259 
	C67.817871,281.529266 67.820114,279.737244 67.820114,277.730591 
	C56.499043,277.730591 45.613426,277.730591 34.818184,277.730591 
	C34.818184,381.900146 34.818184,485.763641 34.818184,589.552979 
	C45.975296,589.552979 56.736656,589.552979 67.828735,589.552979 
	C67.828735,587.959534 67.826660,586.656677 67.829033,585.353882 
	C67.888168,552.862366 67.729752,520.368408 68.081558,487.880066 
	C68.328941,465.034668 86.193764,443.690002 112.057579,444.690521 
	C140.683914,445.797943 169.364120,445.700348 198.021637,445.760254 
	C224.347168,445.815277 250.673431,445.281921 276.999908,445.214020 
	C287.247681,445.187561 296.336273,448.680725 301.531281,457.915100 
	C308.038513,469.481995 311.958405,482.046875 312.026611,495.519653 
	C312.148071,519.512878 312.185333,543.506531 312.252441,568.499878 
M562.670349,488.037933 
	C564.475891,487.536560 566.281494,487.035156 568.476807,486.425568 
	C566.583069,479.078003 564.888489,472.065643 562.960571,465.118073 
	C559.415649,452.342834 553.066284,440.918121 544.410645,431.050171 
	C527.084229,411.296936 504.211731,403.211487 478.662567,402.132599 
	C467.114319,401.644928 455.776093,404.109985 444.721466,407.665344 
	C427.501343,413.203583 412.977234,422.787750 400.544983,435.883209 
	C385.462982,451.769775 378.495270,470.961487 377.079865,492.377045 
	C376.376892,503.013519 377.989929,513.459229 380.903412,523.797424 
	C384.689941,537.233521 390.745911,549.452881 400.227478,559.551147 
	C418.173828,578.664795 441.272766,586.543579 466.852081,587.891724 
	C474.060455,588.271667 481.350250,587.499146 488.581726,586.968628 
	C505.328827,585.740112 520.392395,579.860107 534.723633,569.843933 
	C527.025818,557.058533 519.430115,544.442749 511.982788,532.073364 
	C505.259888,534.362122 499.108368,536.558655 492.891205,538.550415 
	C482.070679,542.016846 471.088501,544.043396 460.280731,538.904541 
	C454.275482,536.049194 448.371613,532.687927 444.956390,525.886841 
	C450.205811,524.161438 455.024323,522.526184 459.874786,520.992065 
	C483.548370,513.504395 507.237579,506.066315 530.906189,498.563232 
	C541.285522,495.272949 551.629150,491.869873 562.670349,488.037933 
M613.680298,584.000122 
	C630.087341,584.000122 646.494324,584.000122 663.000671,584.000122 
	C663.000671,564.999634 662.679626,546.675903 663.135315,528.371521 
	C663.365662,519.121094 664.464172,509.808075 666.119263,500.695709 
	C669.121704,484.165161 678.286682,471.731659 693.884277,465.167053 
	C704.127930,460.855804 714.980774,457.992096 725.825562,454.392242 
	C726.790039,437.575989 727.807800,419.831268 728.859192,401.500305 
	C701.683655,409.309509 680.503052,424.409729 663.695251,447.139313 
	C662.827271,445.100128 662.168762,444.164398 662.043152,443.161896 
	C660.969971,434.598480 660.101257,426.008270 658.934265,417.458405 
	C658.475952,414.101318 657.312317,411.701355 652.719727,411.858856 
	C640.574402,412.275360 628.401367,412.176025 616.247803,411.904541 
	C611.999878,411.809631 610.893433,413.158020 610.913269,417.300568 
	C611.068481,449.781006 610.999329,482.262543 610.999329,514.743713 
	C610.999329,536.397827 610.966919,558.052124 611.072998,579.705688 
	C611.080017,581.138489 612.142090,582.566223 613.680298,584.000122 
M1018.500061,32.427113 
	C1004.682922,32.601845 990.861572,32.622696 977.050049,33.001976 
	C966.752625,33.284756 959.205444,39.406601 956.214233,49.553013 
	C963.839172,50.347309 971.397522,51.157291 978.960754,51.918625 
	C1011.414185,55.185448 1043.856079,58.575657 1076.328003,61.647339 
	C1098.031006,63.700333 1119.756470,65.691772 1141.517700,66.849419 
	C1148.077148,67.198372 1155.205078,65.696365 1161.351685,63.238754 
	C1176.858032,57.038719 1191.106201,48.387543 1204.116455,37.835056 
	C1205.889771,36.396709 1207.329712,34.547203 1209.366577,32.427486 
	C1145.406494,32.427486 1082.453369,32.427486 1018.500061,32.427113 
M621.500000,31.149084 
	C575.011292,31.149084 528.522644,31.149084 482.033936,31.149084 
	C498.247101,46.463348 516.303467,57.999714 537.095703,64.986015 
	C537.404785,65.089851 537.755737,65.115128 538.085083,65.105591 
	C549.355225,64.779610 560.677979,65.028122 571.885681,64.009903 
	C618.621765,59.763935 665.324158,55.146980 712.036316,50.638493 
	C719.448547,49.923080 726.847107,49.066414 734.791626,48.217388 
	C732.104614,40.704609 728.006165,35.138008 720.699341,33.315292 
	C715.112854,31.921707 709.207275,31.285788 703.436401,31.241486 
	C676.458923,31.034374 649.479065,31.149311 621.500000,31.149084 
M952.797546,86.697487 
	C985.335754,95.063210 1017.840454,103.562729 1050.427979,111.732002 
	C1064.410034,115.237122 1078.308472,119.299232 1093.140991,115.142075 
	C1108.348389,110.879822 1118.126709,100.470154 1127.612671,88.123642 
	C1122.163208,87.109978 1117.592896,86.281548 1113.031250,85.407906 
	C1071.364990,77.428085 1029.849731,68.447830 987.546082,64.432297 
	C977.386169,63.467903 966.916260,63.883987 956.775940,65.156319 
	C947.565491,66.311996 941.481262,72.499725 938.580933,82.565598 
	C943.241943,83.886650 947.639954,85.133141 952.797546,86.697487 
M719.381653,61.872540 
	C703.346313,63.507595 687.200378,64.439041 671.301025,66.938896 
	C646.019958,70.913841 620.897278,75.901588 595.720154,80.529427 
	C585.157410,82.470978 574.626892,84.587448 564.140686,86.613007 
	C564.140686,87.331406 564.009399,87.746338 564.161316,87.950432 
	C565.450439,89.682159 566.771240,91.391479 568.119568,93.077866 
	C583.006958,111.697601 601.925964,119.283020 625.495544,113.872208 
	C638.931946,110.787659 652.375366,107.714668 665.735535,104.321075 
	C692.307861,97.571457 718.830505,90.625641 745.354614,83.687889 
	C747.644348,83.088974 749.792358,81.947861 751.967896,81.073990 
	C749.624084,73.241203 745.342651,67.627129 738.341431,65.294403 
	C732.597351,63.380577 726.346985,62.986401 719.381653,61.872540 
M721.273499,153.850647 
	C708.057007,159.307251 694.840515,164.763840 680.510559,170.680130 
	C683.435913,172.246155 685.141235,173.200684 686.882263,174.084747 
	C711.141235,186.402817 736.112183,186.144333 761.529419,178.343765 
	C784.768982,171.211517 805.161255,158.110641 826.667725,147.345718 
	C829.118408,146.119034 831.495361,144.745010 834.869934,142.917603 
	C831.786194,140.161682 829.165527,138.110626 826.885803,135.732742 
	C815.845459,124.217102 803.464966,121.636406 788.415894,127.873795 
	C766.490356,136.961258 744.145874,145.038116 721.273499,153.850647 
M918.609985,175.920715 
	C920.168884,176.497849 921.720947,177.094147 923.287659,177.649246 
	C950.023560,187.122681 976.582275,188.606613 1002.803894,175.827042 
	C1004.932739,174.789536 1006.979858,173.584473 1009.772827,172.074524 
	C1007.769775,171.125992 1006.769409,170.578949 1005.716797,170.164474 
	C970.614624,156.342865 935.574219,142.360626 900.372803,128.796387 
	C882.816467,122.031357 866.958862,128.148926 856.631348,145.357849 
	C877.086182,155.476440 897.483521,165.566559 918.609985,175.920715 
M1024.091553,154.606842 
	C1043.601929,157.107178 1059.485352,150.499634 1072.700928,135.538788 
	C1071.208984,135.001358 1070.322144,134.610947 1069.397583,134.359085 
	C1031.247070,123.965965 993.142273,113.399055 954.903442,103.341309 
	C945.969666,100.991486 936.621826,99.727440 927.389221,99.133316 
	C917.249573,98.480827 908.790833,103.936775 905.820984,111.751106 
	C908.468140,112.982162 911.082581,114.421341 913.849731,115.449944 
	C938.617126,124.656456 963.362854,133.925049 988.219116,142.886688 
	C999.771118,147.051636 1011.552979,150.579041 1024.091553,154.606842 
M697.447144,112.999321 
	C671.187683,120.033058 644.928223,127.066788 618.668762,134.100525 
	C618.230469,134.769165 617.792114,135.437805 617.353821,136.106445 
	C619.301575,137.367371 621.436462,138.413574 623.168274,139.922440 
	C640.302856,154.850723 659.403259,157.419586 680.456299,149.654236 
	C710.888306,138.429443 741.420532,127.476616 771.882141,116.331528 
	C776.342224,114.699692 780.648560,112.647324 786.005005,110.374062 
	C783.246338,107.339577 781.433838,104.737648 779.057251,102.843452 
	C771.325012,96.680641 762.094482,96.692001 753.300232,98.695412 
	C734.833008,102.902405 716.579712,108.048347 697.447144,112.999321 
z"/>
<path fill="#EFEFEF" opacity="1.000000" stroke="none" 
	d="
M1.000000,625.500000 
	C1.330893,625.089478 1.595276,625.274170 1.896574,625.776978 
	C1.666667,626.000000 1.333333,626.000000 1.000000,625.500000 
z"/>
<path fill="#EFEFEF" opacity="1.000000" stroke="none" 
	d="
M1629.500000,626.000000 
	C1629.091431,625.670349 1629.275879,625.405579 1629.776611,625.102844 
	C1630.000000,625.333313 1630.000000,625.666687 1629.500000,626.000000 
z"/>
<path fill="#000000" opacity="1.000000" stroke="none" 
	d="
M780.999146,319.000000 
	C780.999146,309.168060 780.924255,299.834900 781.075195,290.505402 
	C781.099426,289.006989 782.131531,287.524841 783.065796,285.066803 
	C832.121582,354.375549 880.350769,422.516510 928.455261,490.481262 
	C977.513184,422.521912 1026.698364,354.386230 1076.452881,285.461975 
	C1077.534912,287.096832 1078.294434,288.187012 1078.978271,289.322784 
	C1079.125610,289.567413 1078.999878,289.976440 1078.999878,290.309723 
	C1079.000000,387.627960 1079.000000,484.946198 1079.000000,582.632202 
	C1060.875977,582.632202 1042.804199,582.632202 1023.999939,582.632202 
	C1023.999939,581.205322 1023.999878,579.461731 1023.999878,577.718201 
	C1023.999878,537.390869 1023.999939,497.063599 1023.999878,456.736298 
	C1023.999878,455.903076 1024.266479,454.944855 1023.946045,454.261902 
	C1023.215271,452.704071 1022.414246,451.025635 1021.161804,449.960602 
	C1020.790833,449.645111 1018.403931,450.913483 1017.648132,451.964630 
	C1012.657104,458.905884 1007.924988,466.032440 1002.986206,473.012146 
	C985.536926,497.672516 967.995667,522.267822 950.578125,546.950562 
	C942.856445,557.893066 935.347534,568.985718 927.579590,580.245972 
	C896.913635,538.047607 866.433228,496.104675 835.175598,453.092194 
	C835.175598,497.098145 835.175598,539.773682 835.175598,582.723877 
	C817.025696,582.723877 799.288330,582.723877 780.999146,582.723877 
	C780.999146,495.005249 780.999146,407.252625 780.999146,319.000000 
z"/>
<path fill="#000000" opacity="1.000000" stroke="none" 
	d="
M1228.009521,465.000305 
	C1223.532471,465.000305 1219.553711,465.000305 1215.289673,465.000305 
	C1215.289673,485.952484 1215.289673,506.689697 1215.289673,527.825439 
	C1263.292725,527.825439 1311.362305,527.825439 1359.715698,527.825439 
	C1359.715698,546.623657 1359.715698,565.028259 1359.715698,583.717224 
	C1292.373657,583.717224 1224.973267,583.717224 1157.286255,583.717224 
	C1157.286255,487.048126 1157.286255,390.316589 1157.286255,293.292511 
	C1222.942139,293.292511 1288.676025,293.292511 1354.705566,293.292511 
	C1354.705566,310.603882 1354.705566,328.008698 1354.705566,345.812073 
	C1308.393311,345.812073 1261.990234,345.812073 1215.294434,345.812073 
	C1215.294434,366.943024 1215.294434,387.680389 1215.294434,408.816528 
	C1255.947876,408.816528 1296.684937,408.816528 1337.710693,408.816528 
	C1337.710693,427.614777 1337.710693,446.019318 1337.710693,465.000305 
	C1301.359253,465.000305 1264.933594,465.000305 1228.009521,465.000305 
z"/>
<path fill="#000000" opacity="1.000000" stroke="none" 
	d="
M1478.222656,294.016235 
	C1522.033691,285.356842 1561.585327,294.634064 1598.244141,319.490662 
	C1591.303711,333.377502 1584.430908,347.128998 1577.979736,360.037018 
	C1563.212280,354.987823 1548.719849,349.890472 1534.111694,345.149414 
	C1530.920776,344.113831 1527.324219,344.168518 1523.902222,344.034027 
	C1512.537964,343.587341 1501.202271,342.990753 1489.959351,345.914490 
	C1481.606812,348.086578 1475.330566,352.400574 1472.030029,360.461670 
	C1468.124146,370.000732 1469.270386,379.131195 1476.294678,386.625854 
	C1487.348999,398.420532 1501.965820,405.008698 1516.187988,411.936279 
	C1527.712891,417.550018 1539.740845,422.134613 1551.244263,427.788940 
	C1573.115112,438.539368 1587.929932,455.575531 1593.585083,479.468506 
	C1595.974854,489.565460 1596.364624,499.970703 1595.347534,510.633942 
	C1594.257812,522.057495 1591.263550,532.518372 1585.873901,542.324646 
	C1578.502563,555.736572 1567.854736,566.156677 1554.579956,573.782288 
	C1541.187012,581.475891 1526.609985,585.200073 1511.268677,585.971191 
	C1501.362793,586.469055 1491.369751,587.575806 1481.543945,586.795837 
	C1465.128662,585.492859 1448.970947,582.049744 1433.835327,575.277588 
	C1421.275391,569.657898 1409.027832,563.340454 1396.276855,557.155090 
	C1403.353394,544.510803 1410.338623,532.956360 1416.316406,520.902466 
	C1418.784668,515.925354 1421.035278,515.610779 1425.693115,517.176025 
	C1443.300537,523.093079 1460.927002,529.001221 1478.751465,534.210693 
	C1494.674683,538.864319 1510.400879,536.366760 1524.169434,527.710022 
	C1538.199829,518.888672 1541.480591,503.034149 1530.830078,488.310059 
	C1524.516235,479.581207 1515.091064,474.905579 1506.055420,470.195404 
	C1490.721802,462.202393 1474.645996,455.646240 1459.159058,447.930450 
	C1441.971191,439.367188 1427.316650,427.716705 1418.610474,410.042236 
	C1414.372314,401.438507 1411.992798,392.309784 1411.900879,382.512543 
	C1411.778931,369.528748 1412.021729,356.639313 1417.048706,344.452942 
	C1424.024292,327.542633 1434.515259,313.395447 1451.267212,305.084534 
	C1459.828979,300.836975 1468.932129,297.680603 1478.222656,294.016235 
z"/>
<path fill="#FF5824" opacity="1.000000" stroke="none" 
	d="
M312.255127,567.999939 
	C312.185333,543.506531 312.148071,519.512878 312.026611,495.519653 
	C311.958405,482.046875 308.038513,469.481995 301.531281,457.915100 
	C296.336273,448.680725 287.247681,445.187561 276.999908,445.214020 
	C250.673431,445.281921 224.347168,445.815277 198.021637,445.760254 
	C169.364120,445.700348 140.683914,445.797943 112.057579,444.690521 
	C86.193764,443.690002 68.328941,465.034668 68.081558,487.880066 
	C67.729752,520.368408 67.888168,552.862366 67.829033,585.353882 
	C67.826660,586.656677 67.828735,587.959534 67.828735,589.552979 
	C56.736656,589.552979 45.975296,589.552979 34.818184,589.552979 
	C34.818184,485.763641 34.818184,381.900146 34.818184,277.730591 
	C45.613426,277.730591 56.499043,277.730591 67.820114,277.730591 
	C67.820114,279.737244 67.817871,281.529266 67.820450,283.321259 
	C67.859085,310.147339 67.947441,336.973511 67.915924,363.799500 
	C67.901085,376.427582 70.143898,388.624115 74.259827,400.522095 
	C78.846420,413.780609 88.309593,420.726227 102.106934,421.933746 
	C105.583214,422.238007 109.099319,422.140472 112.597061,422.137970 
	C165.919006,422.099976 219.245712,421.611938 272.560730,422.195923 
	C296.385162,422.456879 311.253326,404.983521 311.820648,384.456543 
	C312.510925,359.480621 312.150940,334.475342 312.224030,309.482727 
	C312.254150,299.177979 312.229004,288.873108 312.229004,278.204132 
	C322.737030,278.204132 332.983643,278.204132 343.618317,278.204132 
	C343.618317,381.720642 343.618317,485.430389 343.618317,589.493286 
	C333.360413,589.493286 322.985901,589.493286 312.252441,589.493286 
	C312.252441,582.410645 312.252441,575.455261 312.255127,567.999939 
z"/>
<path fill="#000000" opacity="1.000000" stroke="none" 
	d="
M562.329651,488.277985 
	C551.629150,491.869873 541.285522,495.272949 530.906189,498.563232 
	C507.237579,506.066315 483.548370,513.504395 459.874786,520.992065 
	C455.024323,522.526184 450.205811,524.161438 444.956390,525.886841 
	C448.371613,532.687927 454.275482,536.049194 460.280731,538.904541 
	C471.088501,544.043396 482.070679,542.016846 492.891205,538.550415 
	C499.108368,536.558655 505.259888,534.362122 511.982788,532.073364 
	C519.430115,544.442749 527.025818,557.058533 534.723633,569.843933 
	C520.392395,579.860107 505.328827,585.740112 488.581726,586.968628 
	C481.350250,587.499146 474.060455,588.271667 466.852081,587.891724 
	C441.272766,586.543579 418.173828,578.664795 400.227478,559.551147 
	C390.745911,549.452881 384.689941,537.233521 380.903412,523.797424 
	C377.989929,513.459229 376.376892,503.013519 377.079865,492.377045 
	C378.495270,470.961487 385.462982,451.769775 400.544983,435.883209 
	C412.977234,422.787750 427.501343,413.203583 444.721466,407.665344 
	C455.776093,404.109985 467.114319,401.644928 478.662567,402.132599 
	C504.211731,403.211487 527.084229,411.296936 544.410645,431.050171 
	C553.066284,440.918121 559.415649,452.342834 562.960571,465.118073 
	C564.888489,472.065643 566.583069,479.078003 568.476807,486.425568 
	C566.281494,487.035156 564.475891,487.536560 562.329651,488.277985 
M450.078003,451.402374 
	C435.507690,462.411774 427.676056,484.620880 434.241425,495.570770 
	C458.581085,487.266479 482.858276,478.983490 507.911713,470.435638 
	C505.295532,466.013702 503.482208,461.818604 500.682037,458.441803 
	C494.034058,450.424866 485.771210,445.276917 474.844635,444.913971 
	C466.115051,444.623993 458.355499,447.342163 450.078003,451.402374 
z"/>
<path fill="#000000" opacity="1.000000" stroke="none" 
	d="
M613.196899,583.998230 
	C612.142090,582.566223 611.080017,581.138489 611.072998,579.705688 
	C610.966919,558.052124 610.999329,536.397827 610.999329,514.743713 
	C610.999329,482.262543 611.068481,449.781006 610.913269,417.300568 
	C610.893433,413.158020 611.999878,411.809631 616.247803,411.904541 
	C628.401367,412.176025 640.574402,412.275360 652.719727,411.858856 
	C657.312317,411.701355 658.475952,414.101318 658.934265,417.458405 
	C660.101257,426.008270 660.969971,434.598480 662.043152,443.161896 
	C662.168762,444.164398 662.827271,445.100128 663.695251,447.139313 
	C680.503052,424.409729 701.683655,409.309509 728.859192,401.500305 
	C727.807800,419.831268 726.790039,437.575989 725.825562,454.392242 
	C714.980774,457.992096 704.127930,460.855804 693.884277,465.167053 
	C678.286682,471.731659 669.121704,484.165161 666.119263,500.695709 
	C664.464172,509.808075 663.365662,519.121094 663.135315,528.371521 
	C662.679626,546.675903 663.000671,564.999634 663.000671,584.000122 
	C646.494324,584.000122 630.087341,584.000122 613.196899,583.998230 
z"/>
<path fill="#FF5823" opacity="1.000000" stroke="none" 
	d="
M1019.000122,32.427299 
	C1082.453369,32.427486 1145.406494,32.427486 1209.366577,32.427486 
	C1207.329712,34.547203 1205.889771,36.396709 1204.116455,37.835056 
	C1191.106201,48.387543 1176.858032,57.038719 1161.351685,63.238754 
	C1155.205078,65.696365 1148.077148,67.198372 1141.517700,66.849419 
	C1119.756470,65.691772 1098.031006,63.700333 1076.328003,61.647339 
	C1043.856079,58.575657 1011.414185,55.185448 978.960754,51.918625 
	C971.397522,51.157291 963.839172,50.347309 956.214233,49.553013 
	C959.205444,39.406601 966.752625,33.284756 977.050049,33.001976 
	C990.861572,32.622696 1004.682922,32.601845 1019.000122,32.427299 
z"/>
<path fill="#FF5A25" opacity="1.000000" stroke="none" 
	d="
M622.000000,31.149117 
	C649.479065,31.149311 676.458923,31.034374 703.436401,31.241486 
	C709.207275,31.285788 715.112854,31.921707 720.699341,33.315292 
	C728.006165,35.138008 732.104614,40.704609 734.791626,48.217388 
	C726.847107,49.066414 719.448547,49.923080 712.036316,50.638493 
	C665.324158,55.146980 618.621765,59.763935 571.885681,64.009903 
	C560.677979,65.028122 549.355225,64.779610 538.085083,65.105591 
	C537.755737,65.115128 537.404785,65.089851 537.095703,64.986015 
	C516.303467,57.999714 498.247101,46.463348 482.033936,31.149084 
	C528.522644,31.149084 575.011292,31.149084 622.000000,31.149117 
z"/>
<path fill="#FF5924" opacity="1.000000" stroke="none" 
	d="
M952.417725,86.538559 
	C947.639954,85.133141 943.241943,83.886650 938.580933,82.565598 
	C941.481262,72.499725 947.565491,66.311996 956.775940,65.156319 
	C966.916260,63.883987 977.386169,63.467903 987.546082,64.432297 
	C1029.849731,68.447830 1071.364990,77.428085 1113.031250,85.407906 
	C1117.592896,86.281548 1122.163208,87.109978 1127.612671,88.123642 
	C1118.126709,100.470154 1108.348389,110.879822 1093.140991,115.142075 
	C1078.308472,119.299232 1064.410034,115.237122 1050.427979,111.732002 
	C1017.840454,103.562729 985.335754,95.063210 952.417725,86.538559 
z"/>
<path fill="#FF5924" opacity="1.000000" stroke="none" 
	d="
M719.851318,61.895584 
	C726.346985,62.986401 732.597351,63.380577 738.341431,65.294403 
	C745.342651,67.627129 749.624084,73.241203 751.967896,81.073990 
	C749.792358,81.947861 747.644348,83.088974 745.354614,83.687889 
	C718.830505,90.625641 692.307861,97.571457 665.735535,104.321075 
	C652.375366,107.714668 638.931946,110.787659 625.495544,113.872208 
	C601.925964,119.283020 583.006958,111.697601 568.119568,93.077866 
	C566.771240,91.391479 565.450439,89.682159 564.161316,87.950432 
	C564.009399,87.746338 564.140686,87.331406 564.140686,86.613007 
	C574.626892,84.587448 585.157410,82.470978 595.720154,80.529427 
	C620.897278,75.901588 646.019958,70.913841 671.301025,66.938896 
	C687.200378,64.439041 703.346313,63.507595 719.851318,61.895584 
z"/>
<path fill="#FF5924" opacity="1.000000" stroke="none" 
	d="
M721.626770,153.698242 
	C744.145874,145.038116 766.490356,136.961258 788.415894,127.873795 
	C803.464966,121.636406 815.845459,124.217102 826.885803,135.732742 
	C829.165527,138.110626 831.786194,140.161682 834.869934,142.917603 
	C831.495361,144.745010 829.118408,146.119034 826.667725,147.345718 
	C805.161255,158.110641 784.768982,171.211517 761.529419,178.343765 
	C736.112183,186.144333 711.141235,186.402817 686.882263,174.084747 
	C685.141235,173.200684 683.435913,172.246155 680.510559,170.680130 
	C694.840515,164.763840 708.057007,159.307251 721.626770,153.698242 
z"/>
<path fill="#FF5824" opacity="1.000000" stroke="none" 
	d="
M918.245422,175.788696 
	C897.483521,165.566559 877.086182,155.476440 856.631348,145.357849 
	C866.958862,128.148926 882.816467,122.031357 900.372803,128.796387 
	C935.574219,142.360626 970.614624,156.342865 1005.716797,170.164474 
	C1006.769409,170.578949 1007.769775,171.125992 1009.772827,172.074524 
	C1006.979858,173.584473 1004.932739,174.789536 1002.803894,175.827042 
	C976.582275,188.606613 950.023560,187.122681 923.287659,177.649246 
	C921.720947,177.094147 920.168884,176.497849 918.245422,175.788696 
z"/>
<path fill="#FF5925" opacity="1.000000" stroke="none" 
	d="
M1023.661133,154.501144 
	C1011.552979,150.579041 999.771118,147.051636 988.219116,142.886688 
	C963.362854,133.925049 938.617126,124.656456 913.849731,115.449944 
	C911.082581,114.421341 908.468140,112.982162 905.820984,111.751106 
	C908.790833,103.936775 917.249573,98.480827 927.389221,99.133316 
	C936.621826,99.727440 945.969666,100.991486 954.903442,103.341309 
	C993.142273,113.399055 1031.247070,123.965965 1069.397583,134.359085 
	C1070.322144,134.610947 1071.208984,135.001358 1072.700928,135.538788 
	C1059.485352,150.499634 1043.601929,157.107178 1023.661133,154.501144 
z"/>
<path fill="#FF5925" opacity="1.000000" stroke="none" 
	d="
M697.842896,112.904083 
	C716.579712,108.048347 734.833008,102.902405 753.300232,98.695412 
	C762.094482,96.692001 771.325012,96.680641 779.057251,102.843452 
	C781.433838,104.737648 783.246338,107.339577 786.005005,110.374062 
	C780.648560,112.647324 776.342224,114.699692 771.882141,116.331528 
	C741.420532,127.476616 710.888306,138.429443 680.456299,149.654236 
	C659.403259,157.419586 640.302856,154.850723 623.168274,139.922440 
	C621.436462,138.413574 619.301575,137.367371 617.353821,136.106445 
	C617.792114,135.437805 618.230469,134.769165 618.668762,134.100525 
	C644.928223,127.066788 671.187683,120.033058 697.842896,112.904083 
z"/>
<path fill="#FFFFFF" opacity="1.000000" stroke="none" 
	d="
M450.409119,451.213684 
	C458.355499,447.342163 466.115051,444.623993 474.844635,444.913971 
	C485.771210,445.276917 494.034058,450.424866 500.682037,458.441803 
	C503.482208,461.818604 505.295532,466.013702 507.911713,470.435638 
	C482.858276,478.983490 458.581085,487.266479 434.241425,495.570770 
	C427.676056,484.620880 435.507690,462.411774 450.409119,451.213684 
z"/>
</svg>