<?xml version="1.0" standalone="no"?>
<!DOCTYPE svg PUBLIC "-//W3C//DTD SVG 20010904//EN"
 "http://www.w3.org/TR/2001/REC-SVG-20010904/DTD/svg10.dtd">
<svg version="1.0" xmlns="http://www.w3.org/2000/svg"
 width="784.000000pt" height="214.000000pt" viewBox="0 0 784.000000 214.000000"
 preserveAspectRatio="xMidYMid meet">
<metadata>
Created by potrace 1.16, written by Peter Selinger 2001-2019
</metadata>
<g transform="translate(0.000000,214.000000) scale(0.100000,-0.100000)"
fill="#000000" stroke="none">
<path d="M265 1673 c97 -87 390 -258 489 -284 65 -18 206 -12 616 26 455 42
1363 135 1368 140 8 7 -32 70 -62 97 -65 60 -20 58 -1290 58 l-1161 -1 40 -36z"/>
<path d="M5110 1684 c-53 -17 -88 -46 -124 -102 l-26 -41 43 -6 c75 -10 912
-94 1307 -131 212 -19 437 -36 500 -37 107 -2 120 0 192 29 144 59 417 226
467 287 13 16 -63 17 -1150 16 -983 0 -1171 -3 -1209 -15z"/>
<path d="M2450 1395 c-201 -22 -449 -56 -554 -76 -55 -11 -173 -33 -261 -49
-574 -106 -585 -108 -585 -122 0 -5 40 -49 88 -98 95 -96 145 -126 262 -156
126 -32 261 -6 1030 196 85 22 224 58 309 80 85 22 159 44 164 49 6 6 1 26
-13 56 -52 108 -193 146 -440 120z"/>
<path d="M4981 1379 c-83 -16 -154 -72 -180 -142 -10 -26 -10 -27 72 -51 88
-27 177 -51 572 -152 555 -143 653 -165 743 -166 153 -2 270 51 390 176 45 47
82 90 82 94 0 5 -42 17 -92 26 -161 28 -520 97 -588 112 -86 18 -405 68 -603
94 -163 21 -319 24 -396 9z"/>
<path d="M2897 1034 c-43 -8 -162 -38 -265 -68 -103 -30 -324 -91 -492 -135
-390 -102 -540 -144 -540 -153 0 -28 166 -141 235 -159 165 -45 207 -37 695
139 439 158 676 247 700 262 12 7 12 12 1 34 -21 38 -80 74 -140 86 -67 13
-97 12 -194 -6z"/>
<path d="M4553 1005 c-29 -15 -62 -40 -73 -55 l-21 -29 32 -17 c44 -23 782
-296 1009 -374 220 -76 420 -43 564 91 l57 54 -378 99 c-208 55 -432 115 -498
134 -386 111 -395 113 -520 119 -115 5 -122 4 -172 -22z"/>
<path d="M3365 773 c-67 -17 -787 -297 -1045 -407 l-105 -45 85 -39 c47 -22
126 -50 175 -62 79 -20 107 -22 235 -17 258 10 368 48 820 286 107 57 197 105
200 108 9 9 -119 122 -173 153 -43 25 -62 30 -112 29 -33 -1 -69 -4 -80 -6z"/>
<path d="M4163 746 c-28 -13 -84 -55 -123 -93 l-71 -68 263 -136 c373 -194
502 -240 716 -259 121 -11 183 -6 296 22 77 19 236 84 236 97 0 3 -30 19 -68
34 -216 91 -516 210 -773 308 -342 128 -388 138 -476 95z"/>
</g>
</svg>
