<svg version="1.1" id="Layer_1" xmlns="http://www.w3.org/2000/svg" xmlns:xlink="http://www.w3.org/1999/xlink" x="0px" y="0px"
	 width="100%" viewBox="0 0 786 592" enable-background="new 0 0 786 592" xml:space="preserve">
<path fill="#FFFFFE" opacity="1.000000" stroke="none" 
	d="
M489.000000,593.000000 
	C326.000000,593.000000 163.500000,593.000000 1.000000,593.000000 
	C1.000000,395.666656 1.000000,198.333328 1.000000,1.000000 
	C263.000000,1.000000 525.000000,1.000000 787.000000,1.000000 
	C787.000000,198.333328 787.000000,395.666656 787.000000,593.000000 
	C687.833313,593.000000 588.666687,593.000000 489.000000,593.000000 
M467.104950,363.970886 
	C409.731659,364.030518 352.358337,364.090149 294.135376,364.000397 
	C280.725861,363.318787 270.721252,356.086700 266.289154,343.773346 
	C261.879578,331.522583 259.556549,318.838440 259.454773,305.851593 
	C259.244507,279.021027 259.325439,252.188187 259.287170,225.356277 
	C259.284668,223.599716 259.286835,221.843140 259.286835,220.168884 
	C248.112976,220.168884 237.552536,220.168884 227.196167,220.168884 
	C227.196167,324.072998 227.196167,427.637939 227.196167,531.063293 
	C238.008286,531.063293 248.452835,531.063293 259.286926,531.063293 
	C259.286926,529.044006 259.274841,527.247986 259.288666,525.452148 
	C259.541290,492.642120 259.379761,459.821655 260.199280,427.025757 
	C260.742157,405.299774 279.383270,385.389954 303.048828,386.313751 
	C309.859955,386.579620 316.672699,386.994751 323.485199,387.004669 
	C372.316589,387.075836 421.148315,386.985809 469.979431,387.125153 
	C481.913849,387.159180 490.907257,392.344971 495.945160,403.651031 
	C501.464111,416.036499 504.703003,428.864746 504.673431,442.504425 
	C504.613434,470.169617 504.691864,497.835114 504.712921,525.500488 
	C504.714264,527.287537 504.713074,529.074585 504.713074,531.007751 
	C515.340759,531.007751 525.538086,531.007751 535.660889,531.007751 
	C535.660889,427.148163 535.660889,323.588013 535.660889,220.181763 
	C525.208069,220.181763 515.095154,220.181763 504.705444,220.181763 
	C504.705444,227.067352 504.751801,233.703293 504.697357,240.338394 
	C504.455658,269.808258 504.564392,299.287903 503.784119,328.743835 
	C503.308441,346.701416 488.265839,364.770355 467.104950,363.970886 
M574.841064,69.563629 
	C607.833252,72.620171 640.826477,75.665482 673.817078,78.739456 
	C685.096863,79.790497 696.283936,79.574409 706.369873,73.744011 
	C718.884216,66.509819 731.161072,58.857105 743.407776,51.173599 
	C745.934265,49.588516 747.876587,47.072456 750.697266,44.410652 
	C676.756165,44.410652 603.964478,44.399612 531.172852,44.435627 
	C526.348083,44.438015 521.512817,44.657768 516.701050,45.022160 
	C507.177856,45.743343 498.954224,52.859585 497.407104,61.649189 
	C522.926147,64.237350 548.433228,66.824310 574.841064,69.563629 
M205.904495,67.306152 
	C229.043320,64.986206 252.182144,62.666256 275.723175,60.305984 
	C273.139008,52.543179 268.873596,47.081738 261.549683,45.275818 
	C255.958832,43.897240 250.050262,43.246792 244.281281,43.236340 
	C172.003555,43.105354 99.725525,43.150265 27.447565,43.150097 
	C26.013990,43.150093 24.580414,43.150093 21.936678,43.150093 
	C24.016411,45.139397 25.129124,46.563602 26.557484,47.512840 
	C37.623466,54.866890 48.599052,62.374287 59.899532,69.353462 
	C72.067131,76.868164 85.315811,79.510956 99.642471,77.335258 
	C108.179245,76.038834 116.877892,75.833366 125.493027,75.023148 
	C152.000595,72.530220 178.502975,69.982231 205.904495,67.306152 
M592.782593,85.811691 
	C570.240234,82.498207 547.733826,78.905640 525.139465,75.995903 
	C514.755432,74.658630 504.156952,74.326530 494.015686,78.110603 
	C486.516907,80.908669 481.835419,86.237770 479.646484,94.647881 
	C484.541443,96.031044 488.960022,97.390877 493.435455,98.526741 
	C531.632080,108.221001 569.766113,118.176323 608.068604,127.434090 
	C633.515381,133.584610 653.872253,121.785942 668.191345,100.025848 
	C643.183411,95.299049 618.410461,90.616661 592.782593,85.811691 
M146.264267,127.285179 
	C153.511719,126.672333 160.980270,126.976845 167.969406,125.292267 
	C203.507492,116.726593 238.926758,107.666862 274.373779,98.725235 
	C280.570923,97.161980 286.701996,95.336655 292.837555,93.639572 
	C290.872009,86.258392 288.023865,82.295822 282.777069,79.033295 
	C274.251648,73.732094 264.613800,73.540955 255.229370,74.154808 
	C240.978806,75.086967 226.684891,76.458778 212.617081,78.860367 
	C180.332947,84.371780 148.174194,90.617775 115.964661,96.566200 
	C112.289650,97.244911 108.615395,97.927696 104.400932,98.708626 
	C114.916069,113.706848 127.235756,124.666527 146.264267,127.285179 
M241.024689,174.533051 
	C234.911102,177.151276 228.797531,179.769485 222.278931,182.561142 
	C223.284363,183.402084 223.615479,183.777191 224.027756,184.006134 
	C225.481720,184.813583 226.949783,185.598373 228.436813,186.343201 
	C252.631470,198.461746 277.465942,198.047348 302.735870,190.265671 
	C325.844666,183.149429 346.111511,170.105698 367.518005,159.438248 
	C369.997437,158.202667 372.384552,156.781876 374.850800,155.427002 
	C361.220184,136.916870 348.673981,132.651352 329.094879,140.173431 
	C299.916931,151.383301 270.832642,162.836899 241.024689,174.533051 
M437.950989,139.425537 
	C421.731720,135.190781 409.709808,140.286911 397.638580,156.859375 
	C421.583252,168.475220 443.841187,183.291107 469.406586,191.355362 
	C485.486053,196.427399 501.876617,198.738373 518.633850,195.915680 
	C529.741028,194.044739 540.306763,190.426437 549.888184,184.428619 
	C549.983398,183.853912 550.078674,183.279190 550.173889,182.704468 
	C513.011597,168.386063 475.849335,154.067642 437.950989,139.425537 
M587.283936,140.210144 
	C557.296997,132.034851 527.369934,123.628792 497.287842,115.820251 
	C487.860901,113.373268 478.065796,111.847588 468.349426,111.149742 
	C458.209076,110.421440 449.680481,116.009857 446.861938,123.746452 
	C449.195190,124.864830 451.497589,126.204765 453.959320,127.112625 
	C486.867584,139.248932 519.792969,151.338821 552.726074,163.407654 
	C563.114624,167.214676 573.812317,168.419525 584.620056,165.863297 
	C596.223877,163.118759 605.808960,156.963486 613.709351,147.364838 
	C604.722534,144.954758 596.387329,142.719421 587.283936,140.210144 
M184.065994,163.550522 
	C196.139526,167.538376 208.011749,166.417297 219.758255,162.140488 
	C252.739548,150.132324 285.727356,138.141953 318.687622,126.076370 
	C321.247345,125.139359 323.612610,123.671051 326.222748,122.372818 
	C321.995178,114.328423 315.576477,110.216713 307.468811,110.222702 
	C299.393677,110.228661 291.067291,110.771149 283.289307,112.777374 
	C251.401520,121.002441 219.682510,129.881592 187.897934,138.507339 
	C178.498917,141.058075 169.088623,143.567245 158.837967,146.322739 
	C166.073914,154.372696 173.826721,160.042923 184.065994,163.550522 
z"/>
<path fill="#000000" opacity="1.000000" stroke="none" 
	d="
M468.033997,364.125732 
	C488.265839,364.770355 503.308441,346.701416 503.784119,328.743835 
	C504.564392,299.287903 504.455658,269.808258 504.697357,240.338394 
	C504.751801,233.703293 504.705444,227.067352 504.705444,220.181763 
	C515.095154,220.181763 525.208069,220.181763 535.660889,220.181763 
	C535.660889,323.588013 535.660889,427.148163 535.660889,531.007751 
	C525.538086,531.007751 515.340759,531.007751 504.713074,531.007751 
	C504.713074,529.074585 504.714264,527.287537 504.712921,525.500488 
	C504.691864,497.835114 504.613434,470.169617 504.673431,442.504425 
	C504.703003,428.864746 501.464111,416.036499 495.945160,403.651031 
	C490.907257,392.344971 481.913849,387.159180 469.979431,387.125153 
	C421.148315,386.985809 372.316589,387.075836 323.485199,387.004669 
	C316.672699,386.994751 309.859955,386.579620 303.048828,386.313751 
	C279.383270,385.389954 260.742157,405.299774 260.199280,427.025757 
	C259.379761,459.821655 259.541290,492.642120 259.288666,525.452148 
	C259.274841,527.247986 259.286926,529.044006 259.286926,531.063293 
	C248.452835,531.063293 238.008286,531.063293 227.196167,531.063293 
	C227.196167,427.637939 227.196167,324.072998 227.196167,220.168884 
	C237.552536,220.168884 248.112976,220.168884 259.286835,220.168884 
	C259.286835,221.843140 259.284668,223.599716 259.287170,225.356277 
	C259.325439,252.188187 259.244507,279.021027 259.454773,305.851593 
	C259.556549,318.838440 261.879578,331.522583 266.289154,343.773346 
	C270.721252,356.086700 280.725861,363.318787 294.808716,364.423950 
	C296.144501,364.904205 296.806885,365.010590 297.469299,365.010498 
	C353.112579,365.004181 408.755859,364.994965 464.399109,364.940216 
	C465.611023,364.939026 466.822388,364.409027 468.033997,364.125732 
z"/>
<path fill="#FF5B27" opacity="1.000000" stroke="none" 
	d="
M574.390686,69.487450 
	C548.433228,66.824310 522.926147,64.237350 497.407104,61.649189 
	C498.954224,52.859585 507.177856,45.743343 516.701050,45.022160 
	C521.512817,44.657768 526.348083,44.438015 531.172852,44.435627 
	C603.964478,44.399612 676.756165,44.410652 750.697266,44.410652 
	C747.876587,47.072456 745.934265,49.588516 743.407776,51.173599 
	C731.161072,58.857105 718.884216,66.509819 706.369873,73.744011 
	C696.283936,79.574409 685.096863,79.790497 673.817078,78.739456 
	C640.826477,75.665482 607.833252,72.620171 574.390686,69.487450 
z"/>
<path fill="#FF5A25" opacity="1.000000" stroke="none" 
	d="
M205.455933,67.380905 
	C178.502975,69.982231 152.000595,72.530220 125.493027,75.023148 
	C116.877892,75.833366 108.179245,76.038834 99.642471,77.335258 
	C85.315811,79.510956 72.067131,76.868164 59.899532,69.353462 
	C48.599052,62.374287 37.623466,54.866890 26.557484,47.512840 
	C25.129124,46.563602 24.016411,45.139397 21.936678,43.150093 
	C24.580414,43.150093 26.013990,43.150093 27.447565,43.150097 
	C99.725525,43.150265 172.003555,43.105354 244.281281,43.236340 
	C250.050262,43.246792 255.958832,43.897240 261.549683,45.275818 
	C268.873596,47.081738 273.139008,52.543179 275.723175,60.305984 
	C252.182144,62.666256 229.043320,64.986206 205.455933,67.380905 
z"/>
<path fill="#FF5924" opacity="1.000000" stroke="none" 
	d="
M593.210083,85.872986 
	C618.410461,90.616661 643.183411,95.299049 668.191345,100.025848 
	C653.872253,121.785942 633.515381,133.584610 608.068604,127.434090 
	C569.766113,118.176323 531.632080,108.221001 493.435455,98.526741 
	C488.960022,97.390877 484.541443,96.031044 479.646484,94.647881 
	C481.835419,86.237770 486.516907,80.908669 494.015686,78.110603 
	C504.156952,74.326530 514.755432,74.658630 525.139465,75.995903 
	C547.733826,78.905640 570.240234,82.498207 593.210083,85.872986 
z"/>
<path fill="#FF5924" opacity="1.000000" stroke="none" 
	d="
M145.839111,127.233551 
	C127.235756,124.666527 114.916069,113.706848 104.400932,98.708626 
	C108.615395,97.927696 112.289650,97.244911 115.964661,96.566200 
	C148.174194,90.617775 180.332947,84.371780 212.617081,78.860367 
	C226.684891,76.458778 240.978806,75.086967 255.229370,74.154808 
	C264.613800,73.540955 274.251648,73.732094 282.777069,79.033295 
	C288.023865,82.295822 290.872009,86.258392 292.837555,93.639572 
	C286.701996,95.336655 280.570923,97.161980 274.373779,98.725235 
	C238.926758,107.666862 203.507492,116.726593 167.969406,125.292267 
	C160.980270,126.976845 153.511719,126.672333 145.839111,127.233551 
z"/>
<path fill="#FF5924" opacity="1.000000" stroke="none" 
	d="
M241.366592,174.359924 
	C270.832642,162.836899 299.916931,151.383301 329.094879,140.173431 
	C348.673981,132.651352 361.220184,136.916870 374.850800,155.427002 
	C372.384552,156.781876 369.997437,158.202667 367.518005,159.438248 
	C346.111511,170.105698 325.844666,183.149429 302.735870,190.265671 
	C277.465942,198.047348 252.631470,198.461746 228.436813,186.343201 
	C226.949783,185.598373 225.481720,184.813583 224.027756,184.006134 
	C223.615479,183.777191 223.284363,183.402084 222.278931,182.561142 
	C228.797531,179.769485 234.911102,177.151276 241.366592,174.359924 
z"/>
<path fill="#FF5824" opacity="1.000000" stroke="none" 
	d="
M438.319031,139.587387 
	C475.849335,154.067642 513.011597,168.386063 550.173889,182.704468 
	C550.078674,183.279190 549.983398,183.853912 549.888184,184.428619 
	C540.306763,190.426437 529.741028,194.044739 518.633850,195.915680 
	C501.876617,198.738373 485.486053,196.427399 469.406586,191.355362 
	C443.841187,183.291107 421.583252,168.475220 397.638580,156.859375 
	C409.709808,140.286911 421.731720,135.190781 438.319031,139.587387 
z"/>
<path fill="#FF5925" opacity="1.000000" stroke="none" 
	d="
M587.668030,140.347107 
	C596.387329,142.719421 604.722534,144.954758 613.709351,147.364838 
	C605.808960,156.963486 596.223877,163.118759 584.620056,165.863297 
	C573.812317,168.419525 563.114624,167.214676 552.726074,163.407654 
	C519.792969,151.338821 486.867584,139.248932 453.959320,127.112625 
	C451.497589,126.204765 449.195190,124.864830 446.861938,123.746452 
	C449.680481,116.009857 458.209076,110.421440 468.349426,111.149742 
	C478.065796,111.847588 487.860901,113.373268 497.287842,115.820251 
	C527.369934,123.628792 557.296997,132.034851 587.668030,140.347107 
z"/>
<path fill="#FF5925" opacity="1.000000" stroke="none" 
	d="
M183.697479,163.397797 
	C173.826721,160.042923 166.073914,154.372696 158.837967,146.322739 
	C169.088623,143.567245 178.498917,141.058075 187.897934,138.507339 
	C219.682510,129.881592 251.401520,121.002441 283.289307,112.777374 
	C291.067291,110.771149 299.393677,110.228661 307.468811,110.222702 
	C315.576477,110.216713 321.995178,114.328423 326.222748,122.372818 
	C323.612610,123.671051 321.247345,125.139359 318.687622,126.076370 
	C285.727356,138.141953 252.739548,150.132324 219.758255,162.140488 
	C208.011749,166.417297 196.139526,167.538376 183.697479,163.397797 
z"/>
<path fill="#FF6C3E" opacity="1.000000" stroke="none" 
	d="
M467.569458,364.048309 
	C466.822388,364.409027 465.611023,364.939026 464.399109,364.940216 
	C408.755859,364.994965 353.112579,365.004181 297.469299,365.010498 
	C296.806885,365.010590 296.144501,364.904205 295.233582,364.498657 
	C352.358337,364.090149 409.731659,364.030518 467.569458,364.048309 
z"/>
</svg>