<svg id="Icons" height="512" viewBox="0 0 74 74" width="512" xmlns="http://www.w3.org/2000/svg"><path d="m66.764 51.019a1 1 0 0 1 -1-1v-25.727a1 1 0 0 1 2 0v25.727a1 1 0 0 1 -1 1z"/><path d="m40.929 31.029a1 1 0 0 1 -.357-1.935l21.019-8.01a1 1 0 0 1 .713 1.87l-21.019 8.009a1.014 1.014 0 0 1 -.356.066z"/><path d="m37 61.928a1 1 0 0 1 -1-1v-25.066a1 1 0 1 1 2 0v25.066a1 1 0 0 1 -1 1z"/><path d="m50.7 61.311a1 1 0 0 1 -.355-1.936l2.05-.78a1 1 0 1 1 .71 1.869l-2.049.781a1.018 1.018 0 0 1 -.356.066z"/><path d="m41.07 64.98a1 1 0 0 1 -.355-1.935l4.68-1.779a1 1 0 1 1 .71 1.869l-4.679 1.78a1.012 1.012 0 0 1 -.356.065z"/><path d="m57.69 58.65a1 1 0 0 1 -.356-1.935l5.09-1.94a1 1 0 0 1 .713 1.87l-5.09 1.939a.993.993 0 0 1 -.357.066z"/><path d="m37 61.928a1 1 0 0 1 -1-1v-25.066a1 1 0 1 1 2 0v25.066a1 1 0 0 1 -1 1z"/><path d="m33.071 31.029a1.014 1.014 0 0 1 -.356-.066l-21.015-8.009a1 1 0 0 1 .713-1.87l21.019 8.01a1 1 0 0 1 -.357 1.935z"/><path d="m32.93 64.98a1.018 1.018 0 0 1 -.357-.065l-21.71-8.27a1 1 0 0 1 .713-1.87l21.71 8.27a1 1 0 0 1 -.356 1.935z"/><path d="m7.24 51.02a1 1 0 0 1 -1-1v-25.71a1.009 1.009 0 0 1 1-1.01.991.991 0 0 1 1 .99v25.73a1 1 0 0 1 -1 1z"/><path d="m12.031 19.308a1 1 0 0 1 -.364-1.932l20.607-8.064a1 1 0 1 1 .726 1.863l-20.6 8.063a1 1 0 0 1 -.369.07z"/><path d="m61.969 19.308a1 1 0 0 1 -.365-.07l-20.604-8.063a1 1 0 0 1 .729-1.863l20.607 8.064a1 1 0 0 1 -.364 1.932z"/><path d="m37 14.22a5.69 5.69 0 1 1 5.689-5.69 5.7 5.7 0 0 1 -5.689 5.69zm0-9.38a3.69 3.69 0 1 0 3.689 3.69 3.694 3.694 0 0 0 -3.689-3.69z"/><path d="m8.235 25.426a5.242 5.242 0 1 1 5.242-5.241 5.247 5.247 0 0 1 -5.242 5.241zm0-8.483a3.242 3.242 0 1 0 3.242 3.242 3.245 3.245 0 0 0 -3.242-3.242z"/><path d="m7.241 59.5a5.241 5.241 0 1 1 5.241-5.241 5.247 5.247 0 0 1 -5.241 5.241zm0-8.482a3.241 3.241 0 1 0 3.241 3.241 3.245 3.245 0 0 0 -3.241-3.24z"/><path d="m65.765 25.426a5.242 5.242 0 1 1 5.241-5.241 5.248 5.248 0 0 1 -5.241 5.241zm0-8.483a3.242 3.242 0 1 0 3.241 3.242 3.246 3.246 0 0 0 -3.241-3.242z"/><path d="m66.759 59.5a5.241 5.241 0 1 1 5.241-5.24 5.247 5.247 0 0 1 -5.241 5.24zm0-8.482a3.241 3.241 0 1 0 3.241 3.242 3.245 3.245 0 0 0 -3.241-3.241z"/><path d="m37 70.412a5.242 5.242 0 1 1 5.241-5.241 5.247 5.247 0 0 1 -5.241 5.241zm0-8.483a3.242 3.242 0 1 0 3.241 3.242 3.245 3.245 0 0 0 -3.241-3.242z"/><path d="m37 36.861a5.242 5.242 0 1 1 5.241-5.242 5.248 5.248 0 0 1 -5.241 5.242zm0-8.483a3.242 3.242 0 1 0 3.241 3.241 3.245 3.245 0 0 0 -3.241-3.241z"/></svg>