<svg id="svg" version="1.1" xmlns="http://www.w3.org/2000/svg" xmlns:xlink="http://www.w3.org/1999/xlink" width="400" height="400" viewBox="0, 0, 400,400"><g id="svgg"><path id="path0" d="M0.000 81.691 C 0.000 90.006,12.876 107.547,23.693 113.967 C 36.567 121.608,39.267 121.875,103.572 121.875 L 157.031 121.875 157.031 133.203 L 157.031 144.531 89.844 144.531 C 52.891 144.531,22.656 144.815,22.656 145.161 C 22.656 152.207,32.850 168.033,41.705 174.734 C 56.371 185.831,57.171 185.938,126.241 185.938 L 182.813 185.938 182.813 197.266 L 182.813 208.594 115.276 208.594 L 47.740 208.594 48.946 212.695 C 52.912 226.195,62.855 237.907,75.948 244.502 C 87.587 250.364,80.341 250.062,203.552 249.823 L 313.745 249.609 298.385 179.688 C 289.800 140.608,282.233 107.927,281.231 105.597 C 277.245 96.332,267.862 87.285,257.813 83.016 L 252.734 80.859 126.367 80.653 C 11.155 80.464,0.000 80.556,0.000 81.691 M311.937 136.133 C 312.816 140.107,319.903 172.363,327.686 207.813 L 341.838 272.266 232.638 272.464 C 158.597 272.598,123.438 272.920,123.438 273.464 C 123.437 275.242,127.723 284.290,130.826 289.063 C 140.171 303.435,154.150 313.399,170.949 317.660 L 178.325 319.531 289.163 319.531 C 383.973 319.531,400.000 319.372,400.000 318.431 C 400.000 316.224,367.946 171.381,366.703 167.969 C 358.679 145.948,336.040 128.906,314.810 128.906 L 310.339 128.906 311.937 136.133 " stroke="none" fill="#000000" fill-rule="evenodd"></path></g></svg>