<svg height="512" viewBox="0 0 74 74" width="512" xmlns="http://www.w3.org/2000/svg"><g id="line_icons" data-name="line icons"><path d="m32.3 63.956a.989.989 0 0 1 -.324-.055 1 1 0 0 1 -.623-1.27l4.673-13.631a1 1 0 0 1 1.893.648l-4.67 13.631a1 1 0 0 1 -.949.677z"/><path d="m61.4 50.276a.989.989 0 0 1 -.34-.061l-14.45-5.244a1 1 0 1 1 .682-1.88l14.449 5.244a1 1 0 0 1 -.341 1.941z"/><path d="m44.711 36.156a1 1 0 0 1 -.711-1.706l13.89-13.924a1 1 0 0 1 1.416 1.412l-13.887 13.924a1 1 0 0 1 -.708.294z"/><path d="m35.689 34.823a1 1 0 0 1 -.9-.569l-10.889-22.836a1 1 0 1 1 1.8-.861l10.891 22.836a1 1 0 0 1 -.9 1.43z"/><path d="m12.767 44.835a1 1 0 0 1 -.092-1.995l18.19-1.7a1 1 0 1 1 .186 1.991l-18.191 1.7c-.031.003-.06.004-.093.004z"/><path d="m39.192 50.5a9.234 9.234 0 1 1 9.234-9.234 9.244 9.244 0 0 1 -9.234 9.234zm0-16.467a7.234 7.234 0 1 0 7.234 7.233 7.242 7.242 0 0 0 -7.234-7.237z"/><path d="m61.525 23.46a5.132 5.132 0 1 1 5.133-5.131 5.136 5.136 0 0 1 -5.133 5.131zm0-8.263a3.132 3.132 0 1 0 3.133 3.132 3.135 3.135 0 0 0 -3.133-3.129z"/><path d="m65.346 55.633a5.132 5.132 0 1 1 5.132-5.133 5.138 5.138 0 0 1 -5.132 5.133zm0-8.263a3.132 3.132 0 1 0 3.132 3.13 3.135 3.135 0 0 0 -3.132-3.13z"/><path d="m23.323 12.264a5.132 5.132 0 1 1 5.132-5.132 5.138 5.138 0 0 1 -5.132 5.132zm0-8.264a3.132 3.132 0 1 0 3.132 3.132 3.136 3.136 0 0 0 -3.132-3.132z"/><path d="m8.654 49.166a5.133 5.133 0 1 1 5.132-5.133 5.138 5.138 0 0 1 -5.132 5.133zm0-8.265a3.133 3.133 0 1 0 3.132 3.132 3.136 3.136 0 0 0 -3.132-3.133z"/><path d="m30.959 72a5.132 5.132 0 1 1 5.132-5.132 5.138 5.138 0 0 1 -5.132 5.132zm0-8.264a3.132 3.132 0 1 0 3.132 3.132 3.136 3.136 0 0 0 -3.132-3.132z"/></g></svg>